<svg xmlns="http://www.w3.org/2000/svg" width="176" height="50" viewBox="0 0 176 50"><defs><clipPath id="a"><path fill="none" d="M-10.79-2.3h186.45v53.43H-10.79z"/></clipPath><clipPath id="b"><path fill="none" d="M-10.79 68.38h186.45v53.43H-10.79z"/></clipPath></defs><g clip-path="url(#a)"><g fill="#ff3b78"><path d="M92.88 2.43h.08zm-.07-.57zm.54-1.1zm.19-.76zm-3.05.71zM93.43.1h.08zM93 2.47zm-.52.21h-.06zm-1.59.46h-.06zM92 2.78h-.09zm-2.31-.57h.21c0 .13-.16.11 0 .26s.39.15-.2.13h.12c.05 0 .14.07.15.1h-.1v.07h-.14c.07 0 .34.12.18.11.19 0 .1.06.2.08h-.09a.23.23 0 00.14.14 5.49 5.49 0 01.64 0h.08-.05a1.12 1.12 0 01.21 0h-.06.1c-.19-.07.31 0 .32 0s0-.05 0-.05.15 0 .24.05-.11 0-.12-.05h.25c.04 0 .22 0 0 0h.2-.11c-.08-.05.38 0 .17 0a2.76 2.76 0 01-.39-.16h.07-.06.11c-.06 0 0 0 .06-.05l-.43-.14h.33c.29.07-.11-.08 0-.06h.42c-.07 0-.12-.07-.11-.08s-.08-.07.1 0l-.16-.07H92l.12.06v.11h.06v-.07a1.11 1.11 0 01.25.09l-.12-.06c0-.07 0-.07.17-.07h-.06s-.06-.06 0 0 .13 0 .3 0l-.15-.07s.24.09 0 0h-.06s-.06 0 0 0c.08 0-.13-.06 0 0s-.18-.09-.14-.09l.21.08c.13 0-.07-.07-.06-.1a2.07 2.07 0 01.42.18l-.21-.13.17.08c.1 0-.07 0-.06-.05l-.38-.2c-.08-.05-.1-.09 0-.07h.07l.1.05c.18 0 0-.08 0-.13l.1.06c.11 0-.16-.09-.1-.07l.13.06c-.17-.1.05 0 .12 0L92.65 2a1.71 1.71 0 01.31.15l-.13-.08.15.07c-.17-.1 0 0 0-.06l.12.06-.21-.14.09.07-.22-.07c-.16-.1 0 0 0-.05h.06c0-.05 0 0 .11 0a.32.32 0 01-.13-.06h.1c-.14-.07-.22-.13-.14-.11h.05s-.05 0 0 0l.17.09-.15-.1s-.07-.05 0 0h.07l.13.07c-.18-.1.09 0-.14-.11.13.05-.07-.09.18.05 0 0-.19-.17 0-.15s.17 0 .21 0a2 2 0 01-.16-.28c.32.13 0-.14.13-.08l-.11-.08c.2.08 0-.08.19 0l-.06-.05h-.1.15c.15.08 0-.07.08 0l-.16-.08c-.31-.28.21 0-.07-.29.17.11-.08-.06.11 0s0-.06-.08-.11c.23.16-.19-.13 0 0s.09-.17.22-.2h-.06s0-.09.07 0-.13-.13-.14-.14.12 0 .11 0-.23-.19-.12-.16-.15-.18.07 0c.17.06-.08-.13.09-.08l-.54-.54-.76-.43-.65-.31v.27h-.32l-.13.41.16.12c-.34-.1 0 .19-.31.15l.15.08h-.12c-.08.23 0 .54-.28.63h-.2c.16.16.12.22.07.27.12.1 0 .09-.12.1-.15.22 0 .58-.29.72s0 .29-.28.34-.19.26-.13.32z"/><path d="M91.8 2.83l-.01.01.1.03-.09-.04zm-.06.32s-.02-.01 0 0zm-1.89-.25h.08zm.94.24h.06zm-21.91 6.4h.08zm-.28.1zm.2-.64zm.54-1.13s-.05 0 0 0zm.19-.73zm-3.05.68zm2.95-.61h.07zM69 9.58zm-.53.21h-.06zm-1.59.46zM68 9.89h-.09zm-2.31-.57h.2c0 .13-.16.11 0 .26s.38.15-.21.13h.13s.13.08.14.11h-.1v.07h-.13c.06 0 .34.11.17.11.19 0 .11.06.21.08H66a.28.28 0 00.15.13 6.28 6.28 0 01.63.06h.28H67h.1c-.18-.07.31 0 .33 0s0-.05 0-.05.15 0 .24.05-.12 0-.12-.05h.25c.04 0 .21 0 0-.06a1.88 1.88 0 00.19 0h-.11c-.08-.05.39 0 .18 0a3.37 3.37 0 01-.46-.16h.07-.06.12c-.07 0 0 0 .06-.05l-.44-.15c.11 0 .32.06.19 0h.14c.29.07-.1-.08 0-.06h.16l.25.05c-.08 0-.13-.07-.12-.08s-.08-.08.1 0l-.15-.07H68l.13.06v.11h.06v-.07a.73.73 0 01.24.09l-.12-.06c0-.07 0-.07.18-.07h-.07s-.06-.06 0 0a.45.45 0 01.3 0l-.14-.07s.24.09 0 0-.07-.05 0 0c.07 0-.13-.06 0-.05s-.18-.09-.14-.09l.22.08c.13 0-.08-.07-.07-.1a1.69 1.69 0 01.42.18l-.2-.13.16.08h-.05l-.39-.2c-.07-.05-.1-.09 0-.07h.08l.09.05c.18.05 0-.08 0-.13l.11.06c.11 0-.17-.09-.11-.07l.14.06c-.17-.1 0 0 .11 0l-.17-.08a1.44 1.44 0 01.31.15l-.13-.08.16.07c-.17-.1 0 0-.06-.06l.12.06-.2-.14.09.07-.23-.12c-.16-.1 0 0 0-.05h.07c0-.05 0 0 .1 0L68.77 9h.11c-.15-.08-.22-.13-.14-.11h.05s-.06 0 0 0l.16.08-.15-.09s-.06 0 0 0h.06l.14.07c-.18-.1.08 0-.15-.11.13 0-.06-.09.19 0 0 0-.2-.17 0-.15s.18 0 .21 0a1.28 1.28 0 01-.15-.28c.31.13-.06-.14.13-.08l-.11-.08c.2.08 0-.08.19 0a.16.16 0 01-.06-.05h-.11.15c.14.08-.06-.07.08 0l-.17-.09c-.31-.28.22 0-.06-.29.17.11-.08-.06.11 0s0-.06-.09-.11c.23.16-.18-.13 0 0s.09-.17.22-.2h-.06s0-.09.07-.05-.13-.12-.14-.13.13 0 .11 0-.22-.19-.11-.16-.16-.19.07 0c.18.06-.07-.13.09-.08l-.63-.49-.76-.43-.65-.31v.27h-.33l-.13.41.16.12c-.34-.1 0 .19-.3.14l.14.09h-.12c-.08.23 0 .54-.28.63h-.19c.15.16.12.22.07.27.12.1 0 .09-.11.1-.15.22 0 .58-.29.72s0 .29-.28.34-.09.31-.02.37z"/><path d="M67.79 9.94v.01l.09.03-.09-.04zm-.05.32s-.03-.01 0 0zm-1.9-.26h.08zm.94.25h.06zm25.97.83h.09zm-.24.04s.03.02 0 0zm.05-.39zm.34-.61a.11.11 0 01-.05 0 .15.15 0 00.05 0zm.17-.5zm-2.85-.01zm2.78.03v.06zm-.16 1.47zm-.41.12h-.07zm-1.43.38h-.06zm1-.31h-.1z"/><path d="M89.65 10.94h.2c.08.1-.13.09 0 .19s.4.11-.17.08h.13c.05 0 .14.06.15.08h-.22c.07 0 .34.09.18.08.2 0 .11 0 .21.06h-.09a.27.27 0 00.16.1s.42 0 .62.06h.09a1.36 1.36 0 01.21 0h-.09.1c-.19-.06.31 0 .32 0h.37s.22 0 0 0h.24a3.27 3.27 0 01-.41-.11h.07-.06.16l-.44-.1h.33c.29 0-.12-.06 0 0h.42c-.08 0-.14 0-.13-.05s-.09-.06.09 0l-.16-.05h.23v.09h.06s-.05-.05 0-.05l.25.06h-.13l.16-.06h-.07s-.07 0 0 0h.29l-.15-.06s.25.07 0 0h-.06s-.07 0 0 0-.14 0 0 0l-.22-.26.23.06c.13 0-.09-.05-.08-.07l.43.14-.22-.09.17.06h-.07l-.4-.16c-.08 0-.11-.06 0-.05h.17c.18.05 0 0 0-.09l.11.05c.11 0-.17-.07-.11-.06l.13.06c-.17-.08 0 0 .11 0l-.18-.07a2.33 2.33 0 01.31.13l-.13-.07.15.07c-.18-.09 0 0-.06 0h.12l-.21-.11.09.05-.23-.11c-.16-.08 0 0 0 0h.17l-.14-.07h.11c-.15-.07-.22-.12-.15-.09h.06l.17.08-.16-.08s-.07 0 0 0h.06l.13.06c-.18-.09.08 0-.15-.09.13.06-.07-.07.18.07 0 0-.21-.15-.08-.1s.16.05.19.05a1.56 1.56 0 01-.18-.21c.29.17-.07-.11.1 0l-.11-.09c.19.11 0-.06.17 0l-.06-.06-.1-.07.14.08c.14.1-.05-.06.07 0l-.15-.1c-.29-.29.19 0-.07-.23.15.13-.08-.07.09.06s0 0-.07-.11c.2.09.08-.1.2-.09h-.06s0-.08.06 0-.11-.14-.12-.15.11.06.1.06-.19-.22-.1-.16-.13-.2.06 0c.15.11-.06-.12.08 0l-.53-.5-.65-.59-.56-.41v.23L91 8.14c-.06.11-.11.22-.17.34l.14.14c-.31-.16-.06.17-.31.08l.14.1s-.09 0-.12-.05c-.1.2 0 .5-.31.57h-.2c.15.16.12.22.07.27.12.1 0 .09-.11.1a.7.7 0 000 .38.29.29 0 01-.16.3c-.3 0 0 .24-.21.29s-.19.24-.11.28zm2.15.42l.09.02-.09-.02zm-.01.25zm-1.88-.2h.08-.08zm.95.2h.06zm-5.52 5.44h.08zm-.25.14zm.03-.62zm.21-.93zm-.01-.43zm-2.73.79zm2.67-.79h.07zm.16 1.86zm-.42.28h-.06zm-1.47.65h-.06zm1.07-.49h-.1zm-2.4-.18h.21c.07.1-.14.1 0 .2s.41.1-.17.1h.12a.62.62 0 01.16.07h-.24c.07 0 .35.08.19.07.19 0 .11 0 .21.06h-.09a.27.27 0 00.16.1h.71a1.21 1.21 0 01.2 0h-.16.42c.01 0 0-.05 0-.05h.37c.04 0 .22 0 0-.06h.08c.09 0 0 0 0 0s.38 0 .16-.07c-.16 0-.33-.06-.42-.09h.08-.07a.71.71 0 01.12 0c-.07 0 0 0 .05-.06l-.46-.06h.34c.3 0-.12-.05 0-.05h.39c-.08 0-.13 0-.13-.05s-.09-.05.09-.05h-.16.24v.11h.06v-.06a1.09 1.09 0 01.26 0h-.13c0-.06 0-.07.15-.1h-.06s-.08 0 0 0h.3-.16s.25 0 0 0h-.07s-.07 0 0 0-.14 0 0 0-.19 0-.16-.06h.23c.14 0-.09 0-.08-.08a2.88 2.88 0 01.45.08 1.05 1.05 0 01-.23-.07h.11l-.43-.1c-.08 0-.12-.05 0-.05h.18H85c.18 0 0-.06-.06-.1h.12c.12 0-.18 0-.12-.05h.15c-.19-.06 0 0 .11 0h-.19a1.63 1.63 0 01.33.07l-.14-.05h.17c-.2-.05 0 0-.07 0h.12l-.22-.07h.1l-.25-.05c-.18-.06 0 0 0-.05h.18-.15.12c-.16 0-.25-.08-.17-.07h.06s-.07 0 0 0h.18l-.16-.05s-.08 0 0 0h.2c-.19-.05.08 0-.16-.06.13 0-.09-.07.19 0 0 0-.23-.11-.09-.12s.17 0 .2 0a2.19 2.19 0 01-.22-.2c.33.06-.09-.1.1-.08h-.12c.21 0 0-.06.17 0h-.18.15c.16.05-.07 0 .07 0h-.17c-.36-.2.2 0-.13-.22.18.08-.09-.05.11 0s0 0-.11-.08c.25.11-.21-.1 0 0s.11 0 .11-.05v-.08h-.07s0-.06.06 0-.15-.1-.16-.11.12 0 .1 0-.23-.15-.13-.11-.18-.16.05 0c.16.1-.09-.09.05 0a6.1 6.1 0 01-.59-.54l-.54-.86c-.21-.12-.42-.24-.63-.34a1.33 1.33 0 000 .19v.17l-.35.07-.07.26-.05.23.18.11c-.36 0 0 .19-.28.2l.16.05h-.13a1.43 1.43 0 000 .36.26.26 0 01-.15.28c-.12 0-.07.06-.18.05.18.11.17.17.13.23.14.06 0 .08-.08.1-.08.22.18.48-.09.65s.06.24-.19.31-.15.25-.07.28z"/><path d="M82.36 17.69c-.07-.01-.04 0 0 0zm2.01-.08l.1.01-.1-.01zm0 .31s-.02-.01 0 0zm-1.9-.1zm.96.18zm1.72-8.85h.08zm-.29.15s.02.02 0 0zm.23-.81zm.57-1.16s-.05 0 0 0zm.28-.63zm-3.23.75zm3.12-.72l.06.06zm-.6 2.45zm-.52.33h-.06zm-1.71.63s0-.01 0 0zm1.25-.45h-.1zm-2.35-.6l.2.05c.05.14-.16.1 0 .25s.37.2-.2.09h.12s.13.09.13.11h-.09v.06h-.13c.06 0 .32.17.16.13.18.07.1.07.19.11h-.09a.3.3 0 00.13.15s.4.1.6.17H83l.2.07h.09c-.17-.1.32 0 .34 0s0-.06.06-.06.15.05.24.06-.11 0-.12-.06h.15s.06 0 .1.05.22 0 0-.08a1.57 1.57 0 00.2 0 .35.35 0 01-.11 0c.08 0 0 0 0 0s.39 0 .19-.06a2.78 2.78 0 01-.38-.18h.07-.06.12c-.07 0 0 0 .07-.08l-.44-.14h.34c.3.06-.1-.08 0-.07h.43c-.08 0-.13-.07-.11-.09s-.08-.08.1-.06l-.15-.07h.23v.15h.06v-.08a.69.69 0 01.25.08l-.12-.06c0-.09 0-.09.19-.11h-.07s-.06-.06 0 0 .14-.06.32 0l-.15-.07s.24.07 0 0l-.06-.05s-.06-.05 0 0c.08 0-.13-.06 0-.06s-.18-.09-.14-.09l.22.07c.13 0-.08-.07-.06-.12a1.82 1.82 0 01.43.16c-.19-.1-.13-.06-.21-.13l.17.08c.1 0-.07-.05-.06-.06L84.76 9h-.05c-.08 0-.11-.09 0-.07h.17v-.07c.19 0 0-.1 0-.15l.11.05c.12 0-.17-.07-.1-.07l.13.06c-.17-.09 0 0 .12 0l-.18-.07a1.28 1.28 0 01.32.12l-.13-.07.15.06c-.17-.09 0 0 0-.06a.33.33 0 00.12 0l-.21-.13.09.06-.3-.06c-.17-.1 0 0 0-.06h.06c0-.05 0 0 .11 0a.3.3 0 01-.14-.06h.11c-.15-.07-.22-.12-.14-.1s-.06 0 0 0l.17.08-.16-.09s-.06 0 0 0l.07-.05.14.06c-.19-.09.08 0-.15-.1.13 0-.06-.09.19 0 0 0-.2-.18 0-.17s.18 0 .22 0A2.79 2.79 0 0185.4 8c.32.12-.05-.15.14-.09l-.12-.08c.2.08 0-.09.2 0h-.06l-.11-.06h.15c.14.09-.05-.07.08 0l-.16-.09c-.14-.14-.09-.15 0-.15s.12 0 0-.14c.16.12-.08-.07.1 0s0-.06-.07-.12c.22.18-.17-.15 0 0s.11-.14.23-.15 0-.09.07 0-.11-.14-.11-.15.11 0 .1 0-.19-.23-.09-.17-.11-.22.08 0c.16.11 0-.14.11 0l-.46-.8c-.19-.22-.39-.44-.59-.65l-.55-.46a2.55 2.55 0 00-.14.35h-.39c-.06.09-.11.19-.16.28a1.51 1.51 0 00-.15.28l.14.14c-.18 0-.2 0-.22.09s0 .14-.15.13l.14.09h-.13c-.14.3-.07.67-.38.81-.11 0-.08.07-.2 0 .15.17.11.25.06.32h-.05c.12.11 0 .11-.12.13-.15.28 0 .66-.29.84-.31 0 0 .3-.28.35s-.18.3-.12.39z"/><path d="M83.98 9.78v.01l.1.03-.1-.04zm-.11.42s-.02-.01 0 0zM82 9.73h.07zm.89.4s.03.01 0 0zM76.29 9l.08.05zm-.29.09s.05.01 0 0zm.23-.58zm.57-.89zm.25-.56zM74 7.17zm3-.09l.06.06zm-.63 2zm-.47.13h-.05zm-1.52.41zm1.1-.35h-.1zm-2.36-.52h.21c0 .15-.16.14 0 .3s.07 0 .1.07 0 .07-.3.11h.13s.14.06.15.09h-.1v.08h-.14c.07 0 .35.07.19.1.19 0 .11.05.21.05h-.17a.21.21 0 00.16.12h.92-.06.43c.01 0 0-.05 0-.05h.37s.21 0 0-.05a1.16 1.16 0 00.2 0h.05l-.4-.14h.08-.07.17l-.44-.13c.11 0 .32.05.19 0h.15c.29.07-.11-.07 0-.05h.41c-.07 0-.12-.07-.11-.08s-.08-.07.09 0l-.15-.07h.1l.13.05v.1h.06v-.06a1.31 1.31 0 01.25.09l-.12-.06s0-.06.16 0h-.06s-.07 0 0 0h.29l-.2-.07s.23.09 0 0V9.1s-.06 0 0 0c.08 0-.13-.07 0-.05s-.18-.1-.14-.09L76 9c.13 0-.08-.07-.06-.1a2.93 2.93 0 01.41.2l-.16-.1.16.09c.1 0-.07-.05-.06-.06l-.37-.21c-.07-.06-.1-.09 0-.07h.17s0-.05 0 0c.17.06 0-.08 0-.12l.1.06c.11.05-.16-.09-.1-.07l.13.07c-.16-.11 0 0 .11 0l-.17-.09a1.26 1.26 0 01.3.16l-.12-.08.15.08c-.17-.11 0 0 0-.06l.11.07-.19-.15.08.07-.21-.13c-.16-.11 0 0 0-.05h.06c0-.05 0 0 .1 0l-.13-.08.11.05c-.14-.08-.21-.14-.14-.11l.16.1-.14-.11s-.07-.05 0 0h.07l.12.08c-.17-.11.08 0-.13-.12.12.07-.06-.08.17.08 0 0-.18-.19 0-.15s.17 0 .21 0a1.46 1.46 0 01-.14-.28c.29.17-.05-.13.13-.05l-.16.08c.18.11 0-.08.18 0 0 0 0-.06-.06-.06l-.09-.07c.05 0 0 0 .14.08.14.1 0-.07.08 0l-.15-.11c-.27-.31.21 0 0-.27.14.14-.08-.08.09.06s0-.06-.07-.12c.2.19-.16-.16 0 0s.1-.12.22-.12 0-.08.07 0-.11-.14-.12-.15.11.06.1 0-.18-.22-.09-.16-.11-.21.07 0c.14.12 0-.13.09 0-.16-.21-.32-.43-.47-.65L76 5.76l-.54-.48a2.43 2.43 0 00-.09.3h-.34a4.64 4.64 0 00-.25.42l.13.15c-.32-.15-.08.19-.33.11l.13.11s-.09 0-.12-.05c-.12.22-.08.55-.38.61h-.19c.13.18.09.24 0 .29.11.11-.05.08-.12.09a.88.88 0 00-.11.4.39.39 0 01-.23.34c-.16 0-.17.08-.17.17s0 .16-.13.2-.21.27-.14.33z"/><path d="M75.25 9.31h-.01l.1.03-.09-.03zm-.03.27zm-1.91-.01h.09zm.97.07zM73.57 2h.08zm-.26.14zm.04-.65zm.01-1.01h-.06zm-2.57.62zM73.08 0zm.57 2zm-.45.3h-.06zm-1.53.14s-.01-.01 0 0zm1.1-.04h-.09zm-2.24-.84l.19.08c.07.08-.13 0 0 .1s.36.21-.16 0l.12.06.13.1-.09-.05-.11-.06c.06 0 .3.19.16.12.16.1.09.07.17.12l-.08-.05.14.12.55.3h.07a1.5 1.5 0 01.18.09l.09.06c-.16-.11.29.1.3.09s.14.06.22.09-.1 0-.11-.06l.14.05s.06 0 .1.06.2 0 0-.05l.18.06h-.1c-.07-.05.37.1.17 0l-.38-.19h.07-.06l.11.05c-.06-.05 0 0 .06 0l-.42-.17c.1 0 .31.09.17 0l.15.06c.28.09-.11-.08 0 0h.16l.25.06c-.07 0-.12-.07-.11-.08s-.08-.06.09 0l-.15-.07h.23v.11h.06V2.5a.76.76 0 01.25.09l-.27-.2c0-.06 0-.07.17-.07h-.07s-.07 0 0 0h.3-.15s.25 0 0 0h-.06s-.07 0 0 0-.14 0 0 0-.14-.32-.1-.32l.23.05c.13 0-.09-.06-.08-.09a1.63 1.63 0 01.44.1.72.72 0 01-.22-.06h.11l-.42-.13h-.05c-.08 0-.12-.06 0-.06h.24c.18 0 0-.07-.06-.11h.15c-.19-.05 0 0 .11 0h-.19.05a3.09 3.09 0 01.34.06h-.15.17-.07.13l-.23-.07h.1-.25c-.18-.05 0 0 0 0h.17a.58.58 0 01-.14 0h.11c-.16 0-.24-.05-.17-.05h.06s-.06 0 0 0h.18-.17c.05 0-.08 0 0 0v-.05h.14c-.2 0 .08 0-.17-.06h.19s-.24-.08-.1-.11.17 0 .2-.07L73.45 1c.34 0-.11-.09.08-.11h-.13c.21 0-.05-.06.16-.08h-.2.23-.19c-.4-.07.17-.1-.2-.17h-.02c.28 0-.23 0 0 0s0-.15.08-.22h-.07s-.08 0 0 0h-.09c-.01 0-.29 0-.18-.05s-.23 0 0-.06c.18 0-.14 0 0-.08h-.76l-.87.09-.71.1.16.1-.27.1.1.19h.2c-.35 0 0 .09-.2.12h.17-.12c-.03 0 .25.22 0 .28s0 0-.17 0c.21.05.2.08.17.1h-.07c0 .05 0 .1.08.15s0 .11-.09.11.07.11-.16.07.08-.13.15-.08zm2 .87l.1.04-.1-.04zm-.07.27s-.01-.02 0 0zm-1.71-.81l.07.05zm.83.51zm5.61 14h.08zm-.25.21s.06.01 0 0zm-.01-.79zm-.16-1.33zm.06 0zm-.41-.81zm-2.08 1.98zm2.09-1.82h.08zm.84 2.58zm-.43.4zm-1.61.5h-.05zm1.18-.32h-.1zm-2.34-.54l.2.07c.07.07-.12 0 0 .09l.1.06-.25-.1.11.06.14.1-.08-.05-.1-.06.14.09s.07.06 0 0a1.54 1.54 0 01.17.13h-.08l.14.12.19.13.33.2.07.05c.05 0 .15.08.19.09l.09.05c-.08-.05 0 0 .09 0a.91.91 0 00.22.06c.12.05 0-.05.06 0s.14.05.23.08-.11-.05-.11-.07h.24c.03 0 .22 0 0-.07a1.88 1.88 0 00.19 0h-.11c.09 0 0 0 0 0s.39 0 .18-.05l-.42-.26h-.06.11c-.06-.05 0-.05.07-.06l-.4-.12c.1 0 .32.05.18 0h.15c.29 0-.11-.07 0-.06h.42c-.08 0-.13-.06-.12-.07s-.09-.07.1-.06h-.17.24v.13h.06s-.05-.06 0-.07a1.08 1.08 0 01.25.05l-.19.08c0-.07 0-.07.17-.12h-.07s-.07-.05 0 0 .12-.07.3-.07h-.16s.25 0 0 0h-.06s-.08 0 0 0-.14 0 0-.05-.2 0-.16-.06h.23c.14 0-.09-.06-.08-.1a1.68 1.68 0 01.45.05.66.66 0 01-.23-.07h.11l-.43-.08h-.05c-.09 0-.12-.05 0-.06h.25c.19 0 0-.08-.06-.13h-.01.27-.2a1.39 1.39 0 01.34 0h-.15.17-.07.13l-.24-.05h.11-.25c-.19 0 0 0 0 0h.16-.17.06s-.06 0 0 0h.18H77s-.08 0 0 0v-.07h.15-.18c.14 0-.09-.06.19 0 0 0-.25-.08-.11-.13s.17-.07.19-.11a3.16 3.16 0 01-.27-.18c.34-.05-.12-.11.07-.16h-.13c.21-.05-.05-.08.15-.13h-.2.16c.17 0-.08 0 .07-.06h-.18c-.41-.06.16-.16-.22-.22h-.03c.28 0-.23 0 0 0s0-.21 0-.34h-.07s-.08 0 0-.09-.18 0-.2 0 .11-.08.1-.06-.29 0-.2 0-.24 0 0-.11c.15-.11-.16 0 0-.16a6.77 6.77 0 00-.77.22l-.79.38c-.21.11-.43.2-.65.29h.16c-.08 0-.17.08-.25.12l.06.08.06.09h.2c-.34.09.06.11-.18.18h.17-.12a1.67 1.67 0 00.13.2.15.15 0 01-.07.21h-.17c.21.05.2.1.18.14.15 0 0 .06-.06.08 0 .14.25.34 0 .44s-.13 0-.11.07.06.09-.06.08-.11 0-.09 0a.18.18 0 00.14-.56z"/><path d="M76.16 17.12v.01l.09.02-.09-.03zm-.09.38s-.02-.01 0 0zm-1.72-.77l.06.05zm.79.55zM84.41.11zM84.5 0h-.08zM88-2.68h-.21c-.06-.14.16-.12 0-.26s-.39-.15.19-.13H88s-.14-.07-.14-.09h.09v-.07h.13c-.07 0-.34-.11-.18-.11-.19 0-.1-.06-.2-.08h.09a.22.22 0 00-.14-.13s-.43 0-.64-.05h-.38c.19.08-.32 0-.33 0h-.26a.24.24 0 00-.11 0s-.22 0 0 .06h-.2.11c-.09 0 0 0 0 0s-.39 0-.17.05l.4.14H86h.07-.12c.07 0 0 0-.06.07l.44.12h-.34c-.29-.05.11.07 0 .06h-.41c.08 0 .13.06.11.07s.09.08-.1.06l.16.06h-.23v-.13h-.06v.07a1.09 1.09 0 01-.25-.07l.13.06c0 .07 0 .07-.18.09h.07s.06 0 0 0h-.31l.15.06s-.24-.06 0 0h.06s.07 0 0 0c-.08 0 .13 0 0 0s.19.08.15.08l-.22-.06c-.14 0 .08.07.07.11a1.54 1.54 0 01-.44-.14.71.71 0 01.22.12l-.17-.07c-.11 0 .07 0 0 .05l.41.17h.05c.08 0 .11.08 0 .07h-.23c-.18 0 0 .08 0 .13h-.11c-.11 0 .17.06.11.06l.03.07c.18.08 0 0-.11 0l.18.07a1.22 1.22 0 01-.32-.11l.13.07h-.16c.18.07 0 0 .06 0h-.12l.21.12-.09-.06.23.09c.17.08 0 0 0 0h-.18L85-2h-.11.11-.06.06-.21.21s.07.05 0 0l-.07.05-.27-.05c.19.08-.08 0 .16.1-.14 0 .07.08-.2 0 0 0 .22.16.07.16h-.22a2.22 2.22 0 01.19.27c-.33-.08.07.14-.12.12l.12.06c-.21-.05 0 .09-.2.05.06 0 .07.05.07.05h.12-.16c-.16-.07.06.06-.08 0l.17.06c.34.24-.22.08.09.3-.18-.08.1.05-.11 0s0 .06.1.1c-.25-.11.21.11 0 0s-.07.19-.19.26h.07s0 .08-.07.06.15.11.16.12-.13 0-.11 0 .25.14.14.14.18.16-.07.07c-.19 0 .09.12-.08.1l.71.37.78.37.7.17-.12-.25.32-.07.1-.43-.17-.1c.35.05 0-.19.28-.19l-.16-.06h.13c0-.24-.08-.55.19-.67.11 0 .07-.06.19 0-.17-.14-.14-.2-.1-.26-.13-.09 0-.09.11-.11.12-.24-.09-.58.22-.75s0-.29.25-.35.15-.32.06-.37zm-9.82 3.77zm.5-1.02zm-.61 1.55h.05zm-.26.94zM81.1 1zm-3.17 1.46h-.07zM81.89-1h-.2c-.06-.13.15-.1 0-.23s-.07 0-.1-.07 0-.06.29 0h-.12s-.13-.09-.13-.11h.09l.13.05c-.06 0-.31-.18-.16-.13-.18-.08-.09-.07-.18-.11h.08a.33.33 0 00-.12-.15l-.22-.08-.25-.12h-.08S80.76-2 80.73-2h.05-.09c.17.11-.32 0-.34 0s0 .07-.07.07S80.13-2 80-2s.12 0 .12.06h-.15s-.06 0-.1-.05-.23 0 0 .1h-.21.11c-.09 0 0 0 0 0s-.4 0-.19.1a2.76 2.76 0 01.39.16h-.07l.06.05a.25.25 0 01-.11 0c.06.06 0 .08-.08.11l.45.1h-.35c-.3 0 .11.08 0 .08h-.17a1.13 1.13 0 01-.26 0c.08 0 .13.06.12.08s.08.09-.11.09l.16.06h-.24v-.17h-.06v.09a.59.59 0 01-.25-.06l.12.06c0 .1 0 .1-.18.15h.07s.06.06 0 0S79-1 78.78-1l.15.06s-.25 0 0 0l.07.08s.07 0 0 0c-.08 0 .14 0 0 0s.19.08.15.09l-.23-.06c-.14 0 .08.07.07.11a1.46 1.46 0 01-.44-.13c.2.09.13.05.22.11a.87.87 0 01-.17-.07c-.11 0 .07 0 .06.06l.4.16c.08 0 .11.08 0 .08L79-.45h-.1s0 .06 0 0c-.19 0 0 .11 0 .17h-.11c-.12 0 .17.07.1.07h-.14c.18.09 0 0-.12 0l.19.06a1.28 1.28 0 01-.33-.11l.14.07-.16-.06c.18.09 0 0 .05.07a.54.54 0 00-.12 0l.21.12-.09-.06.23.09c.16.1 0 0 0 .07h-.07c0 .05 0 0-.11 0l.14.05h-.11c.15.07.22.12.14.11s.06 0 0 0l-.19-.2.16.08c-.06 0 .06.06 0 0l-.08.07-.22-.04c.19.09-.08 0 .15.11-.13 0 .07.1-.19 0 0 0 .2.18 0 .19s-.18 0-.22 0a3.18 3.18 0 01.16.32c-.31-.06.09.19-.11.17l.12.07c-.21 0 0 .11-.21.07l.07.05h.11-.16c-.15-.07.06.08-.08 0l.17.07c.31.28-.23.09.05.35-.17-.1.09.07-.11 0s0 .08.08.13c-.24-.14.19.12 0 0s-.11.23-.25.3L78 2s0 .09-.08.06.13.13.14.15-.13 0-.12 0 .23.18.11.17.15.2-.08.08c-.18-.05.07.15-.1.11l.64.49.78.41.67.25v-.34l.36-.08c.07-.2.13-.38.18-.57l-.16-.13c.36.05.06-.25.34-.26l-.16-.07h.13c.1-.3 0-.69.32-.87.12 0 .09-.08.2-.06-.17-.16-.17-.25-.11-.34-.12-.1.05-.11.13-.15a.67.67 0 00.07-.24.53.53 0 010-.13.66.66 0 010-.14.74.74 0 01.23-.53c.31-.08 0-.36.26-.45s.25-.29.14-.36z"/></g><path d="M146.06 36.85a14.45 14.45 0 014.34-.79 15.05 15.05 0 014.43-.18 15.07 15.07 0 014 1.95c1.24.72 2 2.06 2.94 3.16s2.48 1.81 3.08 3.17a15 15 0 011.15 4.32c.14 1.46-.76 2.88-1.07 4.28a13.18 13.18 0 01-1.48 4c-.72 1.24-1.21 2.72-2.31 3.69s-2.57 1.27-3.93 1.86-2.62 1.67-4 1.8a14.39 14.39 0 01-4.35-.74 13.61 13.61 0 01-3.86-1.9 13.19 13.19 0 01-3.23-2.69c-.94-1.06-2.43-1.83-3-3.2a14.89 14.89 0 01-1.11-4.31 14.29 14.29 0 01.35-4.43 14.39 14.39 0 011.92-3.94 13.78 13.78 0 012.63-3.46 14.52 14.52 0 013.5-2.59z" fill="#d1e9e3"/><g fill="none" stroke="#2347d7" stroke-miterlimit="10"><path d="M13 39.33v1.5h-1.5"/><path stroke-dasharray="3.3695859909057617,3.3695859909057617" d="M8.13 40.83H-10.4M-8.72 7.8H9.82"/><path d="M11.5 7.8H13v1.5"/><path stroke-dasharray="2.729768753051758,2.729768753051758" d="M13 12.03v25.93"/></g></g><g clip-path="url(#b)"><path d="M54.06 49.82a1.28 1.28 0 000-2.56 1.28 1.28 0 000 2.56z" fill="#d1e9e3"/></g></svg>