<svg id="desktop" xmlns="http://www.w3.org/2000/svg" viewBox="0 0 164.9 164.3"><defs><style>.cls-1{fill:#93c90e}</style></defs><path class="cls-1" d="M145 101.7l1 .8-1.2-1.1.2.3zm1.8 0c-1-1-1.6-1.7-3.6-3.4l1.7 1.7c-1.5-1.3-1.5-1.1-1.1-.6v-.2l1.3 1.2c-.9-.5 1.2 1.3-.6 0l-.1-.1.9 1a13.5 13.5 0 01-1.3-1c.8.7 1.6 1.5 1.4 1.5 2.9 2.2-2-2 1 .2-.9-.9 1 .5.4-.2zm-2.8-1.5zm8.5-1.1l-.4-.4a4.3 4.3 0 00.4.4zm-6.6-3.9c-.5-.5-.4-.4 0 0zm14.8-4l.6.6-.6-.7zm2.8-1.3zm-7.8-8.3l-.4-.6.4.6zm0-1.7l.2.2c-.3-.3-.4-.4-.3-.2zm8 10.3l-.2-.3zm-10-8.8l-1.2-1.5zm1.2-3a6.7 6.7 0 00.4.6 3.2 3.2 0 00-.4-.5zm-8.1 23.1l.1.3-.1-.3zm1.3-18l-.4-.5a5.9 5.9 0 00.4.6zm2.8-1.8a3 3 0 00-.2-.3zm-.5.9l-.3-.4.3.4zm-.1-3l-.4-.5z"/><path class="cls-1" d="M152 80.8l-1.1-1.6c-.7-.6.7 1.3-.5.1l.7.7c.7 1.2.7 1.6-.5.2l-.3-.5c.8 1.2-1-.9-.3.2l1.4 1.6.7 1.4-1.6-2 .4.8c.7.8-.7-.5.8 1.4a26.4 26.4 0 01-1.7-2.4c.4.6-.3-.2.6 1L149 80l.8 1.4-.4-.5c1.1 1.6-.9-.7 1 2l-.2-.3c1 1.5.1.6-.2.3a31 31 0 002 2.5c-.7-.2-.5-.2 1 2-2-2-2.8-3.6-4.2-5a13.8 13.8 0 011.7 2.5 31.1 31.1 0 01-2.8-2.5l1.2 1.4.5 1-1.5-2.3 1.6 2.3c.8 1.4-2.7-3.1-1-.8l-.4-.4c.8 1.1.4.8.6 1.3l-1.5-1.9.4.3c-1.5-1.7 0 .4 0 .4l2 2.8s.3.5-.1 0l-2.4-3a12.6 12.6 0 011.7 2.6l-1.2-1.5a18.1 18.1 0 001.1 1.5l-.9-1c-1.4-1.4 2.7 3.5 2 3.1-.7-1 0 .4-1-.8l-3.1-3.8c-.8-.5 1.7 2.3 2 2.8l-1.9-2.3 1.5 2c-.5-.6-.6-.5-1.1-1.3h-.5l1.8 2.1-1-1-.2-.3c-1.6-1.8.8 1.2-.7-.5a15.8 15.8 0 011.5 1.8 20.1 20.1 0 00-1.6-1.7c.8.9.2.5 1.4 2a18.5 18.5 0 01-1.5-1.8c1.4 1.7 0 .4.8 1.4l-.3-.3 2 3.1-1-1.3c-.5-.4 2.2 2.7 2 2.8-1.4-1.8 0 .3-1.6-1.7.8 1 1.1 1.6 2.4 3.1-1-.9-2-2.5-2.5-3l.7 1-.9-.9c.7.7.6.9 1.1 1.4l-2.5-2.8c.2.4-.8-.6 0 .5l-.5-.6c1.8 2.2.2.6 2.1 2.8l-1-1.1c0 .3 2 2.5 2.4 3 0 .2.2.5 0 .3a14.9 14.9 0 00-2.3-2.4s0 .3.9 1.4a16.8 16.8 0 01-1.8-2.1c-2-2 .3.6 0 .4l-1-1a42.8 42.8 0 003.5 4.3l-2.5-2.8c-.8-.6-.2.4-.4.3a13.8 13.8 0 01-1.6-1.7c.7 1-.5 0 1.4 2.3-.7-1-.5-.5-1-.9l.9 1c.7 1 1.3 2 .5 1.2l-.6-.6c-.5-.2 2.9 3.5 1.2 2.2-.5-.4-1.6-1.8-1.7-1.6.7.8 2.3 2.4 1.8 2l-1.4-1.4 1.3 1.5a16.4 16.4 0 012 1.9c-1.3-1.2 1.2 1.3-.4 0a51 51 0 00-1.6-1.9c-1.8-1.3 1 1.7-1 .2 1 1.2 1 1.5 2 2.6l-3.6-3.6c-.3-.1 2.8 3 .7 1 1.8 2 1 1.5 3.6 4A7.4 7.4 0 01146 98c.7 1-2.5-2-2.6-1.9s1.8 1.5 1.7 1.7l-.5-.5.6.6-2-1.9c-.7-.4 1.4 1.6 1.4 2l-.4-.5h-.2l-.2-.2.9 1-.7-.6.6.7-.8-.8a10 10 0 011.9 2.1l-.4-.3 1.6 1.7c-1-.8-2-2-1.5-1.2l-1.7-1.6c.6.7-.4-.1.1.5a16 16 0 011.7 1.3c-2.2-1.7.4.6 1.2 1.4l-1-1 1 .9-1-1 1.3 1.1-.9-1c1.4 1.3.3 0 1.7 1.5-.5-.6.5.2-.8-1.1l1.1 1c-.9-1.2-.4-1.3.4-1.2l.6.7-1.6-1.6c1.2 1 2.8 2.1.8 0 0 .2.4.5.5.6-.1-.3 1.5 1 1.4.6-2.1-2.2 1.5 1.2-1.3-1.8l.5.6c-.8-.7-2-2-2.6-2.8l3.2 3.2-.7-.7 1.6 1.6c-3.9-4.2 2.1 1.6-.7-1.5l.6.6c1 .8-1-1.3-1.5-1.9l1.8 2c.7.5-1.1-1.8.2-.7l-2.1-2.3A13.8 13.8 0 01151 99c2 2-.8-1.7 1.1 0a33.5 33.5 0 01-2.1-2.8c.7.9 2.5 2.7 2.5 2.9l.8.9c.3 0 .8.1-1.4-2.4 1.7 1.8.4.3 1.3 1.2a2 2 0 00-.4-.4c-1.3-1.6.2 0 0-.3l.3.4-.9-1.3 1 1.1-1-1.2s1.4 1.6 1.2 1.2l-.9-1c.6.6-.5-.8.8.6l.1.2c1.8 1.8-.4-.8.5 0l-1.8-2c-.5-.7.4.4 1 1 0 0 .7.7 1 .8l-1.2-1.4.5.5 1 1.1c-2.5-3 .6.1-1.7-2.7L154 97c1.3 1.2-1.3-2.3.1-.9s.5-.3 1.6.5l-.5-.6.6.4c-1-1.3-.4-.9-1.6-2.4l1.2 1.5c0-.3-.5-1 .2-.2l.4.5c.4.2.6 0-.2-1a12.3 12.3 0 011.4 1.5l-1-1.7.9 1-1.1-1.4 1.3 1.4c-1.3-1.8.1-.4.1-.6l-.5-.7c-.4-.5.5.4 1 1.1.9.7-1.5-2.4-1-2.3 2.2 2.5-.3-1 2 1.9-.4-.8.6.3-.7-1.5a2.8 2.8 0 01.4.5c.9 1 .4 0 0-.7l.6.8c-1.4-1.9-.8-1.5-2.2-3.4l.9 1.2c1.4 1.7-.6-1-.2-.6l1 1.3c1.8 1.8-.5-2 1-.8.1 0-1.6-2-1.4-2l1.9 2.4c-.9-1.2-.7-1-.5-1a16.3 16.3 0 011 1.6c.7.8-1-1.6.4-.1l-1-1.3c-1-1.8 1.6 1.4 1 .5a1.9 1.9 0 00-.4-.5s.3.2 1 1.2l-1-1.5.8 1.1-.7-1-.6-.7c.8.8-.8-1.5.8.7l.8.9c-.6-.9-1.2-1.8-.9-1.5 1.7 2.1.5.3.8.5l.6.7c-.8-1-.2-.7-.5-1 0-.1.5.3 1 1a9.3 9.3 0 00-1-1.8l1.4 1.8c-2-2.8 1 .8-1.2-2.1l1.3 1.5c-1-1.5-.7-1.3-.4-1.1l.2.3c.3.2-.7-1.4-.7-1.6L164 91c-.2-.4-1.4-2-1-1.7a4.7 4.7 0 01.4.6c-.3-.5.2 0 .7.5l-1.8-2.9 2 2.8c.9 1 .2-.3-.4-1.4l1 1.3s-3.6-5.6-5.2-7.7A28.8 28.8 0 00157 79c.6.9 1.2 2 0 .4l1.1 1.6c.4.8-2.3-3.2-2.5-3l.4.5s.7 1 .3.6a10.8 10.8 0 01-.7-1l1.4 2.3a47 47 0 01-1.5-2.1c0 .1 2.1 2.8 1.5 2.3a12.5 12.5 0 01-1-1.5c-1-1.2-.3 0 .2 1a20.9 20.9 0 00-1.5-2.2 20.2 20.2 0 011.5 2.1c-1-1.4-.6-.7-1-1l1 1.4c.1.3-.3-.3-.2-.2l1 1.3c.9 1.4-.6-.6-1.1-1.1a7 7 0 01-.4-.5c-.5-.5-1.4-1.6-.6-.3l-.1-.2c.8 1.5 1.7 2.3 2.4 3.7-.2-.2-3.2-4.5-2.2-2.8a21 21 0 012.3 3.5l-1.9-2.7.2.5.4.6c1.7 2.3-.3-.2.6 1.2l-4-5.6c1.2 1.7 2.3 3.3 2 3.1l-1.7-2.4c-.6-.4 1.8 3.2 3.1 5.3l-2.8-4v.6l-1.3-2c1.4 2 .3.7 2.2 3.3l-.3-.6a15 15 0 011.5 2.3l-1.2-1.7c.7 1-.6-.6 0 .2l.8 1c1 1.5 0 .1.5.9a27.4 27.4 0 00-1.8-2.4l.1.2c0 .1.8 1.2.1.4l-1.5-2 1 1.5a12.4 12.4 0 01-1-1.4c-1-1 3.4 4.4 1.7 2.7-.5-.8-.9-1.3-.5-1a22.8 22.8 0 00-1.9-2.3l-.1-.2c-.2 0-.5.1.5 1.5z"/><path class="cls-1" d="M151.5 79.3s.1 0 0-.4c-.4-.4-1-.9 0 .4zm-8 10.2l-.2-.2zm0 1l.4.4-.4-.4zm4.2-5.8zm-3.4 2l1.4 1.6a17.4 17.4 0 00-1.4-1.6zm1.7-.2l-.2-.3a1.8 1.8 0 00.2.3zm1-3a8.8 8.8 0 01.7 1.2c-.2-.4.4.1-.6-1.1zm-2.2 9.6l-.8-1 .6.8.2.2zm-.1-1l-.8-1a9.8 9.8 0 01.8 1zm2.5-.8l-.9-1 .7.8.2.2zM1.8 85.5l1 .8-1.2-1 .2.2zm1.8 0L0 82.2l1.7 1.7c-1.6-1.3-1.5-1-1.1-.6v-.1l1.3 1.2c-.9-.6 1.2 1.3-.6 0l-.1-.2.9 1a15.4 15.4 0 01-1.3-1c.8.7 1.6 1.5 1.4 1.5 2.9 2.2-2-2 1 .2v.1c-.9-.9 1 .4.4-.3zM.8 84.2V84c-.1 0 0 0 0 0zM9.2 83l-.3-.4a3.5 3.5 0 00.3.4zm-6.5-3.8c-.5-.6-.4-.4 0 0zM17.5 75l.6.6-.6-.6zm2.7-1.3zm-7.7-8.2l-.5-.6.5.6zm-.1-1.8l.3.2c-.3-.3-.4-.4-.3-.2zm8 10.3l-.1-.3zm-10-8.7l-1.1-1.6zm1.3-3l.4.5a2.7 2.7 0 00-.4-.5zm-8.1 23l.1.3-.1-.2zm1.3-17.9l-.5-.6.5.6zm2.8-1.8v-.1l-.2-.2zm-.6.8l-.2-.3zm0-2.9l-.4-.5z"/><path class="cls-1" d="M8.8 64.7l-1-1.7c-.7-.7.7 1.3-.5 0l.7.8c.7 1.1.7 1.5-.5.1l-.3-.5c.8 1.3-1-.9-.3.2l1.3 1.6.8 1.5-1.6-2 .4.7c.7.8-.7-.5.8 1.5a25.3 25.3 0 01-1.7-2.4c.3.6-.3-.3.5 1L6 63.8l.8 1.4-.4-.5c1.1 1.6-.9-.7 1 2l-.2-.3c1 1.5.1.6-.2.3a31 31 0 002 2.5c-.7-.2-.5-.2 1 2.1-2-2.1-2.8-3.7-4.2-5.1a13.4 13.4 0 011.7 2.5 32.9 32.9 0 01-2.8-2.5L6 67.6l.4 1-1.6-2.3 1.6 2.3c.8 1.4-2.7-3-1-.8l-.4-.4c.9 1.1.4.8.6 1.4l-1.4-2 .4.4c-1.5-1.8 0 .4 0 .4.3.7 1.6 2.1 2 2.7 0 0 .3.6-.1 0l-2.4-3A13 13 0 015.7 70a17 17 0 01-1.2-1.5A17.6 17.6 0 005.6 70l-.9-1c-1.4-1.4 2.7 3.5 2 3.1-.8-1 0 .4-1-.7l-3.1-3.8c-.8-.6 1.7 2.2 2 2.7l-2-2.3 1.5 2-1-1.3h-.6l1.8 2.1-1-1-.1-.3c-1.7-1.9.8 1.1-.8-.5A16.2 16.2 0 014 70.8 18.6 18.6 0 002.3 69c.8.9.2.5 1.5 2a17.1 17.1 0 01-1.5-1.8c1.4 1.8 0 .5.7 1.5l-.2-.4 2 3.1-1-1.3c-.6-.4 2.2 2.7 2 2.8-1.5-1.8 0 .3-1.7-1.7.8 1 1.1 1.6 2.4 3.1-.9-.9-2-2.5-2.5-2.9l.7 1-.8-1 1 1.5-2.5-2.7c.3.4-.8-.7 0 .4L2 72c1.8 2.2.2.6 2 2.8l-1-1c0 .2 2 2.4 2.5 3 0 0 .2.4 0 .2a16 16 0 00-2.3-2.4s0 .3.9 1.4a16.6 16.6 0 01-1.8-2.2c-2-2 .3.7 0 .5l-1-1a43.8 43.8 0 003.5 4.2 55.2 55.2 0 01-2.5-2.8c-.8-.6-.2.4-.5.4a13.8 13.8 0 01-1.5-1.8c.7 1-.5.1 1.4 2.3-.8-.9-.6-.5-1-.9.4.5 1 1 .8 1 .8 1 1.4 2 .6 1.3l-.6-.7c-.5-.2 2.8 3.5 1.2 2.2-.5-.4-1.7-1.8-1.7-1.6.7.8 2.3 2.4 1.7 2l-1.3-1.4L2.7 79a16.4 16.4 0 012 2c-1.3-1.3 1.1 1.3-.4-.1L2.7 79c-1.9-1.4 1 1.6-1 .1 1 1.2 1 1.6 2 2.6L.1 78.2c-.3 0 2.8 3 .7 1.1 1.8 1.9 1 1.4 3.6 4a7.8 7.8 0 01-1.5-1.4c.7 1-2.5-2-2.6-2s1.8 1.6 1.7 1.7a11 11 0 00-.5-.5l.6.7-2-2c-.7-.4 1.3 1.7 1.4 2l-.5-.5H.9v-.1l.8 1-.7-.6a9 9 0 01.6.7l-.8-.8a10 10 0 011.9 2l-.4-.2L3.8 85c-1-.8-2-2-1.4-1.2L.5 82c.6.7-.4 0 .2.5A14.8 14.8 0 012.4 84c-2.1-1.7.4.6 1.2 1.4l-1-1 1 .9-1-1 1.4 1-.9-1c1.4 1.3.3.1 1.8 1.5-.6-.6.5.3-1-1.1 1 .7 1 1 1.3 1-1-1.2-.5-1.3.3-1.1l.6.6-1.5-1.6c1.1 1 2.7 2.2.7.1l.6.6c-.2-.4 1.4.9 1.3.6C5.2 82.7 8.8 86 6 83l.6.7c-.9-.8-2-2.2-2.7-2.9L7 84l-.7-.6L7.9 85c-3.9-4.3 2.1 1.5-.7-1.5l.5.5c1 .9-1-1.2-1.4-1.8l1.8 2c.7.5-1.2-1.9.2-.7L6.2 81a13.8 13.8 0 011.6 2c2 1.9-.8-1.7 1.1 0a31.8 31.8 0 01-2.1-3l2.5 3 .7 1c.3 0 .8 0-1.3-2.5 1.6 1.8.3.4 1.3 1.3a2 2 0 00-.4-.4c-1.3-1.6.1 0 0-.3l.3.3-1-1.2 1.1 1.1L9 81s1.4 1.6 1.2 1.2l-.8-1c.5.6-.6-.8.7.6l.1.2c1.8 1.9-.3-.8.6 0l-1.9-2c-.5-.7.4.4 1 1.1l1 .8-1.2-1.4.6.4.9 1.2c-2.5-3.1.6 0-1.7-2.8.5.6 1 1.3 1.4 1.6 1.3 1.2-1.4-2.3 0-.8s.5-.4 1.6.5L12 80l.6.3c-1-1.3-.4-.8-1.6-2.3l1.2 1.4c0-.2-.5-.9.2-.2l.4.5c.4.3.6.1-.2-1A13.3 13.3 0 0114 80c.2 0-.3-.6-1-1.6l1 1-1.2-1.5 1.3 1.5c-1.2-1.8.2-.5.2-.6l-.6-.7c-.4-.6.5.3 1 1 .9.7-1.5-2.4-.9-2.2 2 2.5-.3-1 2 1.8-.5-.8.5.3-.7-1.4a2.4 2.4 0 01.3.4c1 1 .4.1 0-.7l.7.9c-1.5-2-.8-1.5-2.3-3.5a13.5 13.5 0 01.9 1.2c1.4 1.7-.6-1-.2-.6l1 1.3c1.9 1.9-.4-1.9 1-.7.2 0-1.6-2-1.3-2L17 76c-.9-1.3-.7-1-.5-1 .5.6.8 1 1 1.5.7.8-1-1.6.4-.1l-1-1.3c-1-1.8 1.7 1.4 1 .5a1.9 1.9 0 00-.4-.5s.4.2 1 1.2l-1-1.5.9 1.1-.8-1-.5-.7c.7.9-.8-1.4.8.7l.8 1-1-1.6c1.7 2.2.6.3.9.5l.5.8c-.7-1.1-.2-.8-.5-1.2 0 0 .6.5 1 1.2a8 8 0 00-1-1.9l1.5 1.8c-2-2.8 1 .8-1.2-2 .4.3.9 1 1.3 1.5-1-1.5-.7-1.4-.5-1.2l.3.3c.2.2-.7-1.4-.7-1.6l1.6 2.2c-.1-.4-1.4-2-1-1.7a3.5 3.5 0 01.4.6c-.2-.5.3 0 .7.5l-1.7-2.9c1.5 2 .5 1 1.9 2.8.9 1 .2-.3-.3-1.4l.9 1.3s-3.6-5.6-5.2-7.7a28 28 0 00-2.6-3.5c.6 1 1.2 2 0 .4l1.1 1.6c.3.8-2.3-3.2-2.5-3l.4.5s.7 1.1.3.6a12.3 12.3 0 01-.7-1l1.4 2.3a36 36 0 01-1.5-2.1c-.1.2 2 2.8 1.4 2.3a12.5 12.5 0 01-1-1.5c-1-1.2-.2 0 .3 1a21.2 21.2 0 00-1.5-2.2 18.2 18.2 0 011.4 2.1c-1-1.4-.6-.7-.9-1l1 1.4-.3-.2 1 1.3c1 1.4-.6-.5-1-1a5.2 5.2 0 01-.4-.6c-.5-.5-1.4-1.6-.6-.3l-.2-.2c.8 1.5 1.8 2.3 2.5 3.7-.3-.2-3.3-4.5-2.3-2.7a21.5 21.5 0 012.3 3.5l-1.8-2.8c-.1 0 .4.8.2.6l.4.6c1.7 2.2-.4-.3.6 1.2l-4-5.7 1.9 3.1-1.7-2.4c-.5-.4 1.9 3.2 3.2 5.3l-3-3.8.2.5-1.4-2a38.3 38.3 0 002.2 3.3l-.4-.6a15 15 0 011.6 2.3l-1.3-1.7c.7 1-.5-.6 0 .2l.9 1c1 1.5 0 .1.4.9a25.9 25.9 0 00-1.7-2.4l.1.2c0 .1.8 1.2.1.4l-1.5-2 1 1.5a12.6 12.6 0 01-1-1.4c-1-1 3.4 4.4 1.7 2.7-.6-.7-1-1.3-.5-.9a22.8 22.8 0 00-2-2.3V63c-.2.1-.5.1.5 1.6z"/><path class="cls-1" d="M8.3 63.1v-.3c-.2-.3-1-1 0 .3zm-8 10.2l-.2-.2zm0 1a4.9 4.9 0 00.4.4c-.4-.3-.6-.6-.4-.3zm4.2-5.8zm-3.4 2l1.4 1.7A18.7 18.7 0 001 70.5zm1.6-.1l-.2-.3a2.6 2.6 0 00.3.3zm1.2-3a8 8 0 01.6 1c-.2-.3.4.3-.6-1zm-2.3 9.5l-.8-1 .5.8.3.2zm-.1-1l-.8-1a11.6 11.6 0 01.8 1zm2.5-.7l-.9-1 .7.8.2.2zm122.7 71.3l1 .7-1.2-1 .2.3zm1.6 0l-3.8-3.1 1.8 1.5c-1.6-1.1-1.6-1-1.1-.5v-.2l1.4 1.1c-.9-.5 1.3 1.2-.5 0l-.2-.1 1 .8-1.3-.9c.8.7 1.7 1.4 1.5 1.5 3 2-2.1-2 .9.1l.1.2c-1-.9 1 .3.2-.4zm-2.7-1.4h-.1zm7.2-.7l-.5-.4.5.4zm-6.6-3.5c-.6-.5-.4-.4 0 0zm11-1l.4.7-.4-.7zm2-.2zm-5.7-9.8l-.3-.7.3.7zm.1-1.7a1.9 1.9 0 00.2.3c-.2-.4-.2-.5-.2-.3zm5.7 11.8l-.1-.3zm-7.5-10.8l-.9-1.7zm1.4-2.5l.3.6a4.6 4.6 0 00-.3-.6zm-4.9 19.6l.2.3-.2-.3zm-1.6-16l-.5-.6a5.7 5.7 0 00.5.6zm2.7-1.4l-.2-.3zm-.6.7l-.2-.4zm.2-2.8l-.3-.6z"/><path class="cls-1" d="M130.5 128.2l-1-1.7c-.5-.8.6 1.4-.3 0l.5.8c.6 1.3.5 1.6-.4 0l-.3-.5c.7 1.4-.9-1-.3.1l1.1 1.8.6 1.5-1.3-2.2.3.8c.5.9-.6-.6.6 1.5l-1.4-2.6c.3.7-.3-.3.4 1l-1.2-1.9.7 1.5-.3-.5c.9 1.7-.8-.8.8 2l-.2-.3c.9 1.6.1.6-.2.3a29.4 29.4 0 001.7 2.7c-.6-.4-.4-.3.8 2-1.6-2.2-2.3-3.9-3.5-5.4a15.3 15.3 0 011.4 2.7c-.7-.8-1.3-1.3-2.5-2.8l1 1.5.5 1-1.5-2.3 1.4 2.4c.8 1.4-2.4-3.3-.9-.9l-.3-.4c.7 1.1.3.8.5 1.3l-1.3-2 .3.4c-1.4-1.8.1.4 0 .4l2 2.8c-.1 0 .3.6-.2 0l-2.3-3a14 14 0 011.7 2.6l-1.1-1.5a18 18 0 001 1.5l-.8-1c-1.4-1.5 2.6 3.6 2 3.1-.8-1 0 .4-1-.8l-3.2-3.8c-.7-.5 1.8 2.2 2 2.8l-1.8-2.4c.7 1.1 1 1.3 1.5 2-.6-.6-.6-.5-1.2-1.3h-.5l1.9 2.1-1-1-.2-.3c-1.6-1.8.9 1.2-.7-.5a16.5 16.5 0 011.5 1.8 20.3 20.3 0 00-1.6-1.7c.8.9.2.5 1.5 2a19.4 19.4 0 01-1.5-1.8c1.4 1.7 0 .4.8 1.4a3.5 3.5 0 01-.3-.3c.9 1 1 1.4 2.3 3l-1.1-1.3c-.7-.4 2.3 2.6 2.2 2.6-1.6-1.7 0 .3-1.8-1.6.9 1 1.2 1.5 2.7 3-1-.9-2.2-2.4-2.8-2.8l.8 1-.9-.9 1.2 1.3-2.7-2.6c.3.4-.8-.5.1.4l-.5-.5c2 2 .2.6 2.3 2.6l-1.2-1 2.8 2.8s.3.3 0 .2a20.4 20.4 0 00-2.4-2.2s0 .3 1 1.3a19.5 19.5 0 01-2-2c-2.1-2 .4.5 0 .4l-1-1a49.3 49.3 0 004 3.9c-1.3-1-1.6-1.4-2.8-2.5-.9-.6-.2.3-.4.3a18.7 18.7 0 01-1.7-1.6c.8 1-.5 0 1.7 2a3.7 3.7 0 00-1-.7l1 .8c.8.8 1.5 1.7.7 1l-.7-.5c-.5-.1 3.3 3.1 1.5 2l-1.8-1.5c.8.7 2.6 2.1 2 1.8l-1.5-1.2 1.5 1.3a20.7 20.7 0 012.2 1.6c-1.4-1 1.3 1.2-.4 0l-1.8-1.6c-2-1.2 1.2 1.4-.8.1l2.3 2.3-4-3.2c-.2 0 3.1 2.6.9 1 2 1.6 1.1 1.2 4 3.5a11 11 0 01-1.7-1.3c1 .8-2.6-1.8-2.7-1.7s2 1.4 2 1.5l-.6-.4.6.5-2.2-1.7c-.6-.3 1.6 1.4 1.7 1.7l-.5-.4h-.2l-.1-.1 1 .8-.8-.5.8.6-1-.7a12.6 12.6 0 012.2 1.8l-.5-.3 1.8 1.6c-1-.7-2.1-1.8-1.5-1.1l-2-1.5c.8.7-.3 0 .3.5a20.3 20.3 0 011.8 1.2c-2.3-1.6.4.5 1.3 1.2l-1-.9 1 .8-1-.8 1.3.9-1-.9 1.9 1.3c-.6-.5.5.3-1-1 1 .7 1 1 1.2 1-1-1.1-.6-1.2.1-1l.7.5-1.7-1.4c1.2.9 3 1.9.7.1l.6.5c-.2-.3 1.5.8 1.4.5-2.4-2 1.6 1-1.7-1.6l.7.6c-1-.7-2.2-1.9-3-2.5l3.6 2.8-.8-.6 1.8 1.4c-4.4-3.7 2.2 1.4-1-1.3l.7.5c1 .7-1.2-1-1.7-1.6l2 1.7c.6.5-1.5-1.6 0-.6-1.2-1-1.6-1.2-2.4-2a22.4 22.4 0 011.8 1.6c2.2 1.7-1.1-1.5 1 0-1.3-1.1-1.9-1.6-2.6-2.4l2.8 2.5.9.8c.2 0 .6.2-1.8-2a12.2 12.2 0 001.4 1.1 3.2 3.2 0 00-.4-.3c-1.5-1.4.1 0-.1-.3l.3.3-1-1.1 1.1 1-1.2-1.1c0-.1 1.6 1.4 1.3 1l-1-.8c.7.5-.6-.7.8.5l.2.2c1.9 1.7-.5-.7.4.1l-2-1.9 1.1 1 1 .8-1.3-1.3.5.4 1 1c-2.8-2.8.4.2-2.1-2.4l1.5 1.5c1.3 1.2-1.7-2-.2-.6s.3-.2 1.3.7l-.5-.6.4.4-1.7-2.3 1.3 1.5c-.1-.2-.6-.9 0-.1l.4.5c.4.3.5.2-.3-.9l1.3 1.6a8.9 8.9 0 00-1-1.6l.8 1-1-1.4 1.1 1.5c-1.2-1.8 0-.3 0-.4l-.5-.7c-.4-.6.4.4 1 1.1.6.8-1.6-2.4-1-2.1 1.8 2.7-.5-1 1.6 2.1l-.8-1.4.3.5c.8 1 .3.2 0-.7l.5 1c-1.2-2-.7-1.6-2-3.6l.7 1.2c1.2 2-.5-1-.2-.5l1 1.4c1.4 2.2-.6-1.8.6-.4l-1.1-2 1.4 2.5c-.7-1.3-.5-1-.4-1l.9 1.7c.5.9-.8-1.7.2 0l-.7-1.4c-1-2 1.2 1.7.6.7a3.2 3.2 0 00-.2-.5 5.5 5.5 0 01.8 1.3l-.8-1.6.6 1.3-.5-1.3-.4-.7c.5 1-.7-1.5.5.9l.6 1-.7-1.6c1.3 2.4.4.4.6.7l.5.8c-.6-1.2-.2-.7-.4-1.1a4.9 4.9 0 01.7 1.3 13.5 13.5 0 00-.7-2l1 2c-1.4-3.1.7 1-.8-2.2l.9 1.7c-.7-1.6-.5-1.4-.3-1.1l.1.3c.2.2-.5-1.4-.4-1.7l1.1 2.5a19 19 0 01-.7-1.8 5 5 0 01.3.7c-.1-.5.2 0 .5.7l-1.2-3.2 1.4 3c.6 1.2.1 0-.2-1.2l.6 1.4s-2.4-6.2-3.5-8.6a36.4 36.4 0 00-1.8-4c.4 1 .8 2.3 0 .4l.8 1.8c.2.9-1.6-3.6-1.8-3.5l.3.6c0 .1.5 1.2.2.7l-.5-1.1.9 2.4-1-2.4c-.1.2 1.4 3.2 1 2.6a15.3 15.3 0 01-.7-1.7c-.8-1.4-.2 0 .1 1a23 23 0 00-1-2.4 23.6 23.6 0 011 2.3c-.8-1.5-.5-.8-.7-1.1l.7 1.5c0 .3-.3-.4-.2-.2l.7 1.5c.6 1.5-.5-.8-.9-1.4l-.2-.6c-.3-.6-1-1.8-.5-.4v-.2c.5 1.6 1.2 2.6 1.7 4-.3-.2-2.4-5-1.7-3a27.6 27.6 0 011.6 3.8l-1.3-3 .1.5.3.7c1.3 2.5-.2-.3.4 1.3-1.5-3.5-1.2-2.9-2.9-6.3.9 1.9 1.6 3.7 1.4 3.4l-1.2-2.7c-.5-.5 1.2 3.4 2.2 5.7l-2-4.3v.4l-1-2.1c1 2.2.1.7 1.5 3.6l-.2-.7a20 20 0 011.1 2.6l-1-2c.6 1.2-.3-.6 0 .2l.7 1.2c.8 1.7 0 .1.4 1l-1.4-2.7.2.3s.5 1.2 0 .3l-1.2-2.3.8 1.7a13.9 13.9 0 01-.8-1.5c-.8-1.3 2.6 4.9 1.3 2.9-.5-.8-.7-1.4-.4-1a28.4 28.4 0 00-1.5-2.6l-.1-.3c-.1.2-.3.2.4 1.7z"/><path class="cls-1" d="M130.1 126.7c.1 0 .2 0 0-.4s-.7-1 0 .4zm-7.3 9.1l-.2-.1zm.2 1a5.3 5.3 0 00.5.3c-.4-.3-.7-.6-.5-.3zm3.3-5.5zm-3.2 1.9zm1.6-.1l-.3-.3a2.5 2.5 0 00.3.3zm1-3a12.5 12.5 0 01.6 1.2c-.3-.4.3.2-.6-1.1zm-1 9l-1-1 .7.7.3.2zm-.3-1l-.9-.8.9.8zm2.1-.6l-1-1 .8.8.2.2zM73 163.6l1 .7-1.2-1 .2.3zm1.8-.2a45.7 45.7 0 00-3.9-3l1.9 1.5c-1.7-1.1-1.7-1-1.2-.5v-.2l1.5 1c-1-.3 1.3 1.3-.6.2l-.2-.2 1 .9c-.3-.1-1-.7-1.3-1 .8.8 1.6 1.5 1.4 1.6 3.1 2-2-2 1 0l.2.1c-1.1-.9 1 .3.2-.4zm-2.9-1.2zm8-2.4l-.5-.3a4.6 4.6 0 00.4.3zm-7.2-2.5c-.6-.4-.4-.3 0 0zm12.1-5.3l.6.6-.6-.6zm1.4-.4zm-7.6-8.3l-.5-.5.5.5zm0-1.8l.2.2c-.3-.3-.4-.4-.3-.2zm7.8 10.4l-.2-.3zm-10-8.5l-1.3-1.3zm1.5-3.3a4.2 4.2 0 00.4.5 2.7 2.7 0 00-.4-.5zm-3 23v.3c0 .1.1 0 0-.2zm-3.4-16.7l-.5-.5a6 6 0 00.5.5zm2.3-2.3l-.2-.2zm-.4 1l-.3-.3zm-.6-2.9l-.4-.5z"/><path class="cls-1" d="M74.8 143a18.4 18.4 0 01-1.4-1.3c-.8-.5.9 1.2-.5.2l.8.5c1 1 1 1.4-.4.3l-.5-.5c1 1.2-1.1-.6-.2.3l1.6 1.3 1 1.3-2-1.7.5.7c.8.7-.7-.4 1.1 1.2a27.1 27.1 0 01-2.2-2c.6.6-.3-.1.8.9l-1.8-1.4 1.1 1.2-.4-.4c1.4 1.3-1-.5 1.4 1.7l-.3-.2c1.4 1.2.3.5 0 .3a28.6 28.6 0 002.3 2c-.6-.1-.5-.1 1.5 1.8-2.3-1.7-3.5-3-5.1-4.2a14.7 14.7 0 012.1 2.2 35.9 35.9 0 01-3.2-2l1.5 1.2.7.8-2.1-1.8 2 1.9c1.2 1.2-3.3-2.4-1.1-.5l-.5-.4c1 1 .6.7 1 1.2l-2-1.5.5.2c-1.8-1.4.2.4 0 .4l2.7 2.2s.4.4-.1 0l-3-2.4a14.3 14.3 0 012.4 2.2l-1.2-.8c-1.7-1 3.4 2.8 2.7 2.5-1-.8.1.4-1.1-.5-.3-.3-2.9-2-4-3-.8-.3 2.2 1.8 2.6 2.2l-2.4-1.8 2 1.6-1.4-1h-.5l2.3 1.7-1.3-.8-.2-.2c-2-1.5 1 .9-.8-.4a17 17 0 011.9 1.4 21.5 21.5 0 00-2-1.3c1 .7.4.4 1.9 1.6a20 20 0 01-1.9-1.4c1.8 1.3.1.4 1.1 1.2l-.3-.3L73 152l-1.3-1c-.7-.3 2.8 2 2.7 2.2-2-1.4 0 .3-2-1.3 1 .9 1.4 1.3 3 2.5-1-.7-2.5-2-3.1-2.3l1 .8-1-.7 1.3 1.1-3-2.1c.3.3-1-.4 0 .4l-.5-.4c2.2 1.6.3.5 2.7 2.2l-1.3-.9c.1.3 2.6 2 3.1 2.4.1 0 .3.3.1.2a18 18 0 00-2.8-1.8s0 .3 1.2 1.2a18.2 18.2 0 01-2.2-1.7c-2.4-1.6.4.5 0 .4l-1.1-.8a52.4 52.4 0 004.3 3.4l-3-2.2c-.9-.4 0 .3-.3.4a16.3 16.3 0 01-2-1.4c1 .9-.4.1 2 1.9a3.7 3.7 0 00-1.1-.7l1 .8c1 .7 1.7 1.5.8 1l-.7-.5c-.5 0 3.6 2.8 1.7 1.9l-2-1.3c.8.6 2.7 1.9 2 1.6l-1.5-1 1.6 1.1a18 18 0 012.3 1.5c-1.5-1 1.5 1-.4 0l-2-1.4c-2-1 1.4 1.3-.8.2 1.2 1 1.3 1.3 2.5 2.2l-4.3-3c-.2 0 3.3 2.5 1 1 2 1.5 1.2 1.2 4.2 3.2a8.7 8.7 0 01-1.7-1.1c.9.8-2.8-1.6-2.8-1.5l2 1.4-.6-.4.7.5c-.8-.4-1.5-1-2.3-1.6-.7-.3 1.6 1.4 1.7 1.7l-.5-.4h-.2l1 .7-.8-.5.7.6-1-.6a10 10 0 012.2 1.8l-.4-.3 1.9 1.4c-1.1-.6-2.2-1.6-1.6-1l-2-1.4c.7.7-.4 0 .2.5a18 18 0 011.8 1.1c-2.3-1.4.5.6 1.4 1.3l-1.1-1 1.1.8-1-.8 1.3.9-1-.8c1.6 1 .3 0 2 1.2-.7-.6.5.1-1-1 1 .5 1 .8 1.3.9-1.1-1.2-.7-1.4.1-1.3l.7.5-1.8-1.3c1.4.8 3.1 1.6.8 0l.6.4c-.2-.3 1.6.7 1.5.3-2.5-1.7 1.7.9-1.7-1.5l.7.5-3.2-2.2 3.9 2.5-.8-.5L79 162c-4.6-3.4 2.4 1.1-1-1.3l.7.4-1.9-1.4 2.2 1.5c.8.4-1.5-1.6 0-.7-1.2-1-1.7-1.1-2.6-1.8a14.4 14.4 0 012 1.3c2.4 1.4-1.2-1.4 1-.2-1.3-1-2-1.4-2.7-2.2.9.7 3 2 3 2.2l1 .7c.4 0 .9 0-1.8-2l1.5 1a2 2 0 00-.4-.3c-1.7-1.3.1 0-.1-.3l.3.3-1.2-1 1.3.8-1.4-1s1.8 1.2 1.5.9l-1-.7c.7.4-.7-.7.8.3l.2.2c2.2 1.4-.5-.7.5 0l-2.3-1.6c-.6-.6.5.2 1.3.8l1 .5-1.4-1 .6.3 1.2.9c-3.2-2.5.6 0-2.3-2.3l1.7 1.3c1.5.9-2-1.9-.2-.8s.3-.4 1.6.2l-.6-.4.5.2c-1.3-1-.6-.7-2-2l1.5 1.2c-.2-.2-.8-.7 0-.2l.6.4c.4.2.6 0-.5-.9a16 16 0 011.7 1.2l-1.3-1.3 1 .8-1.4-1.1 1.6 1.1c-1.7-1.4 0-.4 0-.5l-.8-.6c-.5-.4.6.3 1.2.9 1 .5-2-2-1.4-2 2.5 2-.6-.7 2.2 1.5-.6-.6.5.2-1-1.2a3.2 3.2 0 01.4.4c1 .8.4 0-.3-.6l.9.7c-1.8-1.6-1.2-1.3-3-2.9l1.1 1c1.8 1.4-.7-.8-.3-.5l1.3 1.1c2 1.5-1-1.6.6-.7.1 0-2-1.7-1.7-1.6l2.2 2-.7-.8 1.4 1.3c.7.6-1.3-1.4.2-.1l-1.2-1.1c-1.4-1.6 1.7 1.3.9.4a2.9 2.9 0 00-.4-.4l1.1 1-1.2-1.3 1 1-.9-1-.6-.6c.9.8-1-1.2.8.7l1 .8-1.2-1.3c1.9 2 .5.3.7.5l.7.7c-1-1-.4-.7-.8-1a6 6 0 011.1 1l-1.3-1.6 1.6 1.7c-2.2-2.6.8.9-1.5-2a26.8 26.8 0 01.7.6l.2.3-1-1.5 1.7 2.3c-.2-.4-1.4-2-1-1.6s.2.4.3.5c-.3-.4.2.1.5.7l-1.8-2.9 1.8 2.9-.2-.3-.2-.3a10 10 0 01-.4-.7l-.8-1.7-2.5-5a27.3 27.3 0 00-2-3.9c.4 1 .9 2.3-.1.5l.9 1.7c.2 1-2-3.4-2.3-3.2l.4.5c0 .2.6 1.2.2.8a7.7 7.7 0 01-.6-1.1l1 2.3a24.3 24.3 0 01-1.2-2.2c-.2.3 1.9 3 1.2 2.5a9.4 9.4 0 01-1-1.5c-1-1.3-.2 0 .2 1a17.1 17.1 0 00-1.5-2.2 16.1 16.1 0 011.5 2.2c-1-1.5-.6-.7-1-1l1 1.4c.1.3-.3-.3-.2-.2l1 1.3c.9 1.4-.7-.6-1.2-1a3.8 3.8 0 01-.3-.6c-.5-.5-1.5-1.5-.7-.2l-.1-.2c.8 1.5 1.8 2.2 2.5 3.6-.3-.2-3.4-4.4-2.4-2.7a23.8 23.8 0 012.5 3.4l-2-2.6.3.5.4.6c1.9 2.1-.3-.2.7 1.2l-4.4-5.4c1.3 1.7 2.5 3.2 2 3l-1.8-2.3c-.6-.3 2 3.1 3.7 5L76 142l.2.5-1.6-1.8a29.9 29.9 0 002.6 3l-.5-.6a17.9 17.9 0 011.8 2.1l-1.4-1.5c.8 1-.6-.5 0 .2l1 1c1.2 1.3 0 0 .5.8a27.6 27.6 0 00-2-2.2l.2.2c0 .1.9 1 .1.4l-1.9-2 1.3 1.5a12.3 12.3 0 01-1.2-1.2c-1.3-1 3.8 3.8 2 2.4l-.7-.8a19.3 19.3 0 00-2.2-2l-.2-.3c-.1.1-.4.2.8 1.4z"/><path class="cls-1" d="M74 141.6s.1-.1 0-.4-1-.7 0 .4zm-5 11l-.3-.3zm.2.8l.5.3-.5-.3zm2.3-6zm-2.6 2.4zm1.5-.3l-.3-.2a2 2 0 00.3.2zm.2-3a8.6 8.6 0 01.9 1c-.4-.3.3 0-1-1zm.6 9l-1-.7.6.5.4.3zm-.5-.9l-.9-.7 1 .7zm2.2-1l-1.1-.8.8.7.3.1zm13.7-31.8l.8 1-.9-1.4v.4zm2.1 0a29.6 29.6 0 00-3-4l1.4 1.9c-1.3-1.5-1.4-1.3-1-.7v-.2l1.1 1.4c-.9-.6 1 1.5-.7 0l-.1-.2.7 1.1a9.7 9.7 0 01-1-1.2c.5 1 1 1.9.8 2 2.5 2.6-1.4-2.5 1.1 0l.1.3c-.6-1.1 1.1.4.7-.4zM86 120c0-.1 0-.1 0 0zm10.2-2.4l-.4-.4a4.2 4.2 0 00.4.4zm-7-3.3c-.6-.6-.4-.4 0 0zm16-5.5l.5.7-.5-.7zm2.5-.5zm-6-9.7l-.3-.7a5.2 5.2 0 00.4.7zm.7-2l.3.3c-.2-.4-.3-.4-.3-.3zm5.4 12l-.1-.3zm-8.5-10.3l-1-1.6 1 1.6zm2.8-3.2a4.5 4.5 0 00.4.6 2 2 0 00-.4-.6zm-13.3 26.4l.1.3v-.3zm3.4-20.2l-.4-.6a5 5 0 00.4.6zM96 99v-.1l-.2-.2zm-.9 1l-.2-.4zm.6-3.3l-.3-.6z"/><path class="cls-1" d="M97.5 97.7a12.4 12.4 0 01-1-1.7c-.7-.6.5 1.5-.6.2l.6.7c.6 1.3.6 1.7-.6.3l-.3-.6c.7 1.4-1.1-.8-.4.3l1.3 1.7.6 1.5-1.6-2.1.4.8c.6.9-.7-.5.7 1.5a18.8 18.8 0 01-1.7-2.5c.4.7-.3-.2.5 1.1L94 97.1l.7 1.5-.3-.5c1 1.6-1-.7.8 2l-.2-.2c1 1.4 0 .6-.2.3a21.5 21.5 0 001.8 2.5c-.7-.2-.5-.1 1 2.2-2-2.1-2.7-3.8-4.2-5.2a10.4 10.4 0 011.6 2.7 28.2 28.2 0 01-2.9-2.4l1.2 1.4.5 1-1.6-2.2 1.5 2.3c.8 1.4-2.7-3-1-.7l-.5-.4c1 1.1.4.8.6 1.4l-1.5-1.9.5.3c-1.6-1.7 0 .5-.1.4.4.7 1.7 2.2 2.1 2.8 0 0 .3.5-.2 0a31 31 0 01-2.4-3 10.3 10.3 0 011.7 2.6 16.7 16.7 0 01-1.2-1.4 14.6 14.6 0 001.1 1.4l-1-1c-1.5-1.3 2.8 3.5 2 3.1-.8-1 0 .4-1-.6-.2-.4-2.4-2.6-3.3-3.7-.8-.5 1.8 2.2 2 2.7l-2-2.2 1.5 2-1.2-1.4c-.4 0-.1.2-.5 0l1.9 2.2-1-1-.3-.3c-1.7-1.8.9 1.1-.7-.5a15 15 0 011.5 1.7 16.5 16.5 0 00-1.7-1.6c.9.9.2.6 1.5 2a14.6 14.6 0 01-1.5-1.8c1.4 1.7 0 .5.7 1.5l-.2-.3 2.1 3-1-1.2c-.7-.4 2.2 2.6 2 2.7-1.5-1.8 0 .3-1.8-1.6l2.6 3c-1-.8-2.1-2.4-2.7-2.8l.8 1-1-.9 1.2 1.4-2.6-2.6c.2.3-.9-.6 0 .4l-.6-.5c2 2 .2.6 2.2 2.7l-1.1-1c0 .3 2.2 2.4 2.6 3 0 0 .2.3 0 .2a13.3 13.3 0 00-2.2-2.2s0 .3.9 1.4a15.3 15.3 0 01-1.9-2.1c-2-2 .3.6-.1.5l-1-1a38.7 38.7 0 003.6 4.1 47 47 0 01-2.5-2.7c-.9-.6-.3.4-.5.4a12 12 0 01-1.7-1.7c.8 1-.5.2 1.5 2.3-.8-.9-.6-.5-1-.8l.9 1c.7.8 1.3 1.8.5 1.2l-.6-.7c-.6 0 2.9 3.6 1.1 2.3-.5-.4-1.6-1.7-1.7-1.6.7.8 2.3 2.4 1.7 2l-1.3-1.3 1.3 1.5c1.1 1 .9.5 2 1.9-1.4-1.2 1.1 1.3-.5 0 0-.2-1-1.3-1.6-1.8-1.8-1.4 1 1.7-1 .2 1 1.2 1 1.6 1.9 2.7-1.4-1.4-2.6-2.6-3.5-3.7-.3 0 2.6 3 .6 1.2 1.7 1.9.8 1.5 3.3 4.1a6 6 0 01-1.4-1.4c.7 1-2.4-2.1-2.5-2s1.7 1.6 1.6 1.8l-.5-.5.6.7-1.9-2c-.7-.5 1.2 1.7 1.2 2l-.4-.5h-.4l.8 1-.7-.7a7.6 7.6 0 01.6.8l-.8-.9c1.2 1.4 1.7 2.3 1.7 2.3l-.4-.3 1.4 1.9c-1-.8-1.7-2.2-1.3-1.3l-1.6-1.9c.5.9-.4 0 0 .6A12.8 12.8 0 0188 120c-2-1.9.3.7 1 1.6l-.8-1.1 1 1-.9-1.1 1.2 1.2-.8-1.1c1.3 1.4.3 0 1.6 1.6-.4-.7.6.3-.7-1.2 1 .8.9 1 1 1.2-.6-1.5 0-1.7.9-1.6l.5.7-1.4-1.8c1.1 1 2.8 2.2.8 0a6.4 6.4 0 01.6.6c-.1-.3 1.5.9 1.5.5-2-2.3 1.6 1-1.2-2l.5.7a38 38 0 01-2.6-2.9l3.3 3.2-.8-.6 1.6 1.6c-3.8-4.4 2.3 1.4-.5-1.7l.6.6c1 .8-1-1.3-1.4-2l1.8 2c.7.5-1.1-2 .3-.8l-2.2-2.3a10.3 10.3 0 011.7 1.7c2.1 1.8-.7-1.8 1.3-.2a27.5 27.5 0 01-2.2-2.7c.7.8 2.6 2.5 2.6 2.7l.8.8c.3 0 .9 0-1.3-2.4 1.7 1.8.3.3 1.3 1.2a1.4 1.4 0 00-.4-.4c-1.4-1.5.2 0 0-.3l.3.3-.9-1.3 1.1 1-1.2-1.2c.1 0 1.6 1.5 1.4 1.1l-1-.9c.7.5-.5-.8.8.5l.2.2c1.9 1.8-.4-.8.6 0l-2-2c-.5-.7.5.3 1.1 1l1 .7-1.2-1.4.6.4 1 1.2c-2.7-3 .7 0-1.8-2.8l1.5 1.5c1.4 1.2-1.5-2.2 0-.9s.6-.4 1.8.3l-.5-.5.6.2c-1.1-1.2-.5-.8-1.7-2.3l1.3 1.5c0-.3-.5-1 .2-.3l.4.5c.4.2.7 0-.1-1.1 0-.2.8.8 1.4 1.5.2 0-.3-.7-1-1.6l1 .9-1.2-1.4 1.3 1.4c-1.3-1.7.2-.4.2-.6l-.6-.7c-.4-.5.5.3 1 1 .9.7-1.5-2.4-.9-2.2 2.1 2.5-.3-1 2 1.8-.5-.8.5.3-.7-1.5a4.7 4.7 0 01.3.5c1 1 .4.1 0-.7l.7.9c-1.4-2-.8-1.6-2.1-3.5l.8 1.2c1.4 1.7-.6-1-.2-.7s.8 1 1 1.4c1 1 .8.5.7 0s-.3-1.4.3-.7c.2 0-1.4-2.1-1.2-2l1.7 2.4c-.8-1.2-.6-1-.4-1a16.7 16.7 0 011 1.6c.6.9-.9-1.7.3 0l-.8-1.4c-1-1.9 1.4 1.6.8.6a1.8 1.8 0 00-.3-.5s.3.2.9 1.3l-.9-1.6.7 1.2c0-.3-.5-1-.6-1.2l-.5-.7c.7 1-.6-1.5.7.8l.7 1c-.5-1-1-1.8-.7-1.6 1.4 2.4.4.5.7.7l.4.8c-.5-1.2 0-.8-.3-1.2a3.4 3.4 0 01.8 1.3 11.6 11.6 0 00-.8-2l1.1 2c-1.4-3.1.7 1-.8-2.2l1 1.7c-.8-1.6-.5-1.4-.3-1.1l.1.3c.2.2-.4-1.5-.4-1.7l1 2.6c-.1-.4-.9-2.3-.6-1.8l.2.6c-.1-.5.2.1.5.8l-1-3.3c.9 2.3.3 1 1.1 3.2.5 1.1.2-.2 0-1.4l.4 1.5-1-3.5c-.6-2-1-4.2-1.5-5.4a22 22 0 00-1.4-4.2c.3 1 .5 2.4-.2.5l.6 1.8c0 1-1.3-3.7-1.6-3.5l.2.5c0 .2.4 1.4 0 .8a7.5 7.5 0 01-.3-1.2l.6 2.6a20.8 20.8 0 01-.8-2.5c-.3.2 1.2 3.3.6 2.7a8.1 8.1 0 01-.6-1.7c-.7-1.5-.3 0 0 1a14.8 14.8 0 00-1-2.4 14 14 0 01.8 2.4c-.6-1.6-.4-.8-.7-1.2a16.4 16.4 0 01.6 1.6c.1.3-.2-.4-.2-.2l.7 1.5c.5 1.5-.5-.7-1-1.3a4.8 4.8 0 01-.2-.6c-.4-.6-1-1.8-.6-.4l-.1-.2c.4 1.7 1.2 2.6 1.6 4.2-.3-.3-2.3-5.1-1.7-3.2a17.6 17.6 0 011.6 3.9l-1.3-3s.2.9 0 .6l.3.7c1.3 2.5-.3-.3.3 1.3-1.6-3.5-1.2-2.9-2.9-6.3.8 2 1.6 3.7 1.2 3.5L99.5 95c-.6-.4 1 3.6 2.1 5.8l-2.2-4.2v.5L98.1 95a26.2 26.2 0 001.8 3.6l-.3-.7a12.5 12.5 0 011.2 2.5l-1-1.8c.6 1.1-.4-.6 0 .2l.7 1.1c.8 1.6-.1.2.3 1a18.7 18.7 0 00-1.5-2.5l.1.2c0 .1.6 1.2 0 .4l-1.2-2.3.9 1.7a8.7 8.7 0 01-1-1.5c-1-1.1 2.9 4.7 1.4 3-.5-.9-.8-1.5-.4-1a16.4 16.4 0 00-1.7-2.6l-.1-.2c-.3 0-.7.1.1 1.6z"/><path class="cls-1" d="M97.3 96s.2 0 0-.3-.9-1 0 .4zm-10.5 12.4l-.1-.2zm0 1a4.4 4.4 0 00.5.4c-.4-.3-.7-.6-.5-.3zm4.9-6.8zm-3.9 2.6l1.4 1.7a16.4 16.4 0 00-1.4-1.7zm1.8-.3l-.2-.3a2.6 2.6 0 00.2.3zm1.5-3.5a7.6 7.6 0 01.6 1.2c-.3-.4.4.1-.6-1.1zm-3 10.7l-.8-1 .6.7.2.3zM88 111c.3.2-.2-.5-.7-1l.7 1zm2.8-1.1l-.9-1 .7.8.2.2zM43.6 98.3l1.1.6-1.4-.8.3.2zm1.5.2c-1.1-.9-1.8-1.5-4-3l2 1.5c-1.8-1.2-1.7-1-1.2-.5v-.2l1.4 1c-.9-.4 1.4 1-.5 0l-.2-.1 1.1.7c-.3 0-1-.6-1.4-.8.9.7 1.8 1.2 1.7 1.3 1.6.8 1 .4.4 0s-1.2-.8.4.1l.2.1c-1.2-.7.9.5 0-.1zm-2.8-1.3c-.2-.1-.1 0 0 0zm7.5-.6l-.3-.4.3.4zm-6.3-4c-.5-.6-.3-.5 0 0zm14-2l.5.6-.4-.7zm2.3-.4zm-5.4-10l-.3-.6.3.6zm.5-1.7l.2.2-.2-.2zm5 12v-.3zm-7.5-10.8l-.9-1.7 1 1.7zm2.2-2.8a5.6 5.6 0 00.3.6 2.6 2.6 0 00-.3-.6zM45 98.3l.2.2-.2-.2zm1.4-17.2l-.4-.7a7 7 0 00.4.7zm3.2-1.6l-.2-.3zm-.8.8l-.2-.3zm.5-2.9l-.3-.6z"/><path class="cls-1" d="M50.9 78.8A18 18 0 0150 77c-.6-.7.4 1.4-.5 0l.5.8c.6 1.3.5 1.7-.5 0l-.2-.5c.6 1.4-1-1-.4.2l1.1 1.8.5 1.5-1.3-2.2.3.8c.6.9-.6-.6.6 1.5a23.3 23.3 0 01-1.4-2.6c.3.7-.2-.2.4 1L48 77.6l.6 1.6-.3-.5c.9 1.7-.8-.9.8 2l-.2-.3c.8 1.6 0 .6-.2.3a27.8 27.8 0 001.5 2.7c-.6-.3-.4-.2.7 2.2-1.6-2.4-2.1-4-3.4-5.6a13.3 13.3 0 011.3 2.7 36.2 36.2 0 01-2.4-2.8l1 1.6.4 1-1.4-2.4 1.3 2.4c.7 1.5-2.3-3.3-1-.8l-.3-.5c.8 1.2.3.9.5 1.4l-1.3-2 .4.4c-1.3-2 0 .4-.1.3l1.8 3s.3.6-.1 0a36 36 0 01-2.1-3.2 12.2 12.2 0 011.4 2.8l-1-1.6a16 16 0 001 1.6l-.9-1.2c-1.3-1.5 2.3 3.8 1.7 3.4-.7-1.1 0 .3-1-.9 0-.4-2-2.8-2.7-4-.7-.7 1.5 2.3 1.7 2.9L44 81.5c.6 1.1 1 1.3 1.3 2.2-.4-.8-.5-.6-1-1.5h-.5l1.6 2.3-.9-1.2-.1-.3c-1.5-2 .7 1.2-.7-.6a14.3 14.3 0 011.3 2 17.8 17.8 0 00-1.4-1.9c.7 1 .1.6 1.2 2.1a18 18 0 01-1.3-1.9c1.3 1.9 0 .5.6 1.5L44 84l1.8 3.2-1-1.4c-.5-.4 2 2.9 2 3-1.5-2-.2.2-1.7-1.9.8 1.2 1 1.7 2.2 3.3-.8-1-1.8-2.6-2.3-3l.7 1-.8-1 1 1.5-2.4-3c.3.5-.7-.6 0 .5l-.4-.6c1.7 2.3.1.6 2 3l-1-1.3c0 .3 1.9 2.6 2.3 3.2 0 .1.2.4 0 .3A16.6 16.6 0 0044 88s0 .4.8 1.5a16 16 0 01-1.7-2.3c-1.8-2.2.3.7 0 .5l-1-1a40.7 40.7 0 003.3 4.4l-2.3-3c-.8-.6-.2.4-.5.4a13.3 13.3 0 01-1.5-1.8c.7 1-.5 0 1.3 2.3-.7-1-.5-.5-1-.9l.9 1c.7 1 1.3 2 .5 1.2l-.6-.6c-.5-.2 2.8 3.6 1.2 2.2a22.6 22.6 0 00-1.7-1.6c.7.8 2.3 2.4 1.7 2L42.3 91l1.2 1.5a15.8 15.8 0 012 2c-1.3-1.2 1.2 1.3-.4-.1 0-.2-1-1.3-1.6-1.8-1.8-1.4 1 1.6-.9.1 1 1.2 1 1.5 2 2.6L41 91.6c-.3 0 2.8 3 .7 1.1 1.9 1.8 1 1.4 3.7 3.9a8.4 8.4 0 01-1.5-1.4c.8 1-2.6-2-2.6-1.9S43 94.8 43 95l-.6-.4.6.6-2-1.8c-.7-.4 1.4 1.5 1.5 1.8l-.5-.4-.1-.2.9 1-.8-.7.8.7-1-.7a12.8 12.8 0 012.1 1.9l-.4-.3 1.8 1.5c-1-.7-2.2-1.7-1.6-1l-1.9-1.5c.7.6-.3 0 .3.5a16.9 16.9 0 011.7 1.1c-2.3-1.5.5.6 1.4 1.3l-1.1-1 1.1.8-1.1-.7 1.4 1-1-.9c1.5 1.2.2 0 1.8 1.3-.6-.5.5.3-1-1 1 .7 1 1 1.3 1-1.2-1.1-.7-1.2 0-1l.6.6-1.6-1.5c1.2 1 2.8 2.2.7.1l.6.6c-.2-.3 1.4 1 1.3.6-2.1-2.1 1.5 1.2-1.4-1.7l.6.6-2.7-2.8 3.2 3.1-.7-.6 1.6 1.6c-3.9-4.2 2.1 1.6-.7-1.4l.5.6c1 .8-1-1.2-1.4-1.8l1.8 2c.6.7-1.2-2 .1-.8-1-1.1-1.4-1.5-2-2.4a14.8 14.8 0 011.5 1.8c2 2-.8-1.7 1 .1a34.7 34.7 0 01-2-2.8c.6.8 2.3 2.7 2.3 3l.8.8c.3 0 .7.3-1.3-2.3 1.5 1.8.3.3 1.2 1.3a1.9 1.9 0 00-.4-.4c-1.3-1.7.1 0 0-.3l.3.3-.9-1.2 1 1.2-1-1.4s1.3 1.7 1.1 1.3l-.8-1c.5.6-.5-.9.7.6l.1.2c1.7 2-.3-.8.5 0l-1.7-2c-.5-.8.4.3 1 1.1l.8.8-1-1.4.4.4.9 1.3c-2.3-3.3.6.1-1.6-2.9l1.3 1.7c1.2 1.4-1.3-2.3 0-.7s.5-.3 1.5.6l-.4-.6.5.4c-1-1.4-.4-.8-1.4-2.5l1 1.6c0-.2-.4-1 .2-.1l.4.5c.4.3.6.2 0-1a13.3 13.3 0 011.1 1.7c.2 0-.2-.7-.8-1.7l.8 1-1-1.6 1.1 1.7c-1-2 .2-.4.2-.6l-.5-.7c-.3-.7.4.4.8 1.1.8.8-1.2-2.5-.7-2.3 1.8 2.8-.2-1 1.7 2.1-.4-.8.5.4-.6-1.5a5 5 0 01.3.5c.8 1.2.4.2 0-.7l.6 1c-1.2-2-.6-1.6-1.8-3.7l.7 1.3c1.2 1.9-.4-1-.1-.6l.8 1.4c1.5 2.2-.2-1.9 1-.5 0 0-1.3-2.2-1-2.1.6 1 1 2.2 1.4 2.6-.7-1.4-.5-1-.4-1l.8 1.7c.5.8-.7-1.8.3 0l-.7-1.4c-.8-2 1.3 1.7.7.6a2.3 2.3 0 00-.2-.5 4.5 4.5 0 01.8 1.4l-.7-1.7.6 1.3-.6-1.2-.4-.8c.6 1-.5-1.5.6.9l.7 1c-.5-1-1-2-.7-1.6 1.2 2.4.4.4.6.7l.4.8c-.5-1.2 0-.7-.3-1.2a3.8 3.8 0 01.7 1.4 12.5 12.5 0 00-.7-2l1 2c-1.3-3.1.7 1-.7-2.2l.8 1.8c-.6-1.7-.4-1.5-.2-1.2l.1.3c.2.3-.4-1.4-.3-1.7l1 2.6c-.1-.4-.9-2.4-.6-1.9a5.4 5.4 0 01.2.7c-.1-.5.2.1.5.7-.7-1.8-.4-1.2-1-3.2.8 2.2.2 1 1 3.2.5 1.1.2-.2-.1-1.3l.5 1.4-1-3.5-1.6-5.4a29 29 0 00-1.3-4.1c.2 1 .5 2.3-.2.4l.6 1.8c0 1-1.2-3.7-1.5-3.6l.2.6c0 .1.4 1.3 0 .8a10.7 10.7 0 01-.3-1.2l.6 2.5-.8-2.4c-.2.1 1.2 3.3.7 2.6a12 12 0 01-.6-1.7c-.7-1.5-.3 0 0 1a19.7 19.7 0 00-1-2.4 16 16 0 011 2.4c-.6-1.6-.5-.8-.7-1.2a15.8 15.8 0 01.6 1.6c0 .3-.2-.4-.2-.2l.7 1.5c.4 1.6-.5-.7-1-1.4a4.8 4.8 0 01-.1-.6c-.4-.6-1-1.8-.6-.4V78c.4 1.7 1.1 2.6 1.5 4.2-.3-.3-2.2-5.2-1.6-3.2a21.4 21.4 0 011.4 4l-1.2-3.2s.2 1 0 .6l.4.7c1.1 2.6-.3-.3.3 1.3L52.4 76c.8 2 1.4 3.8 1.1 3.5l-1-2.8c-.5-.5 1 3.6 2 5.9l-2-4.4v.5l-1-2.2a33.4 33.4 0 001.5 3.6l-.2-.7a15.2 15.2 0 011 2.6l-.9-2c.6 1.3-.4-.6 0 .3l.6 1.2c.8 1.6 0 0 .3 1a24.5 24.5 0 00-1.3-2.7l.1.2c0 .1.5 1.3 0 .4l-1-2.3.7 1.7a13.5 13.5 0 01-.7-1.5c-1-1.3 2.4 4.9 1 3-.4-1-.6-1.5-.3-1a20 20 0 00-1.4-2.7l-.1-.3c-.2 0-.5 0 .2 1.6z"/><path class="cls-1" d="M50.7 77.2s.1 0 0-.4-.7-1 0 .4zm-9.5 9.5l-.1-.2zm0 1a4.9 4.9 0 00.4.5l-.4-.4zm4.7-5.6zM42.3 84l1.2 1.7a19.3 19.3 0 00-1.2-1.7zm1.6 0l-.2-.3a2 2 0 00.2.3zm1.5-2.9a7.6 7.6 0 01.5 1.2c-.2-.5.3.1-.5-1.2zm-3 9.4l-.8-1 .6.7.3.3zm0-1l-.8-1a10.4 10.4 0 01.7 1zm2.5-.7l-.8-1 .6.8.2.2zm82.4-64l.8 1-.9-1.3.1.3zm2 .2a34.5 34.5 0 00-3-4l1.4 2c-1.3-1.5-1.3-1.3-1-.7V22l1.1 1.4c-.8-.7 1 1.5-.6 0l-.2-.2.7 1.1a10.8 10.8 0 01-1-1.2c.6 1 1.2 1.9 1 1.9 2.4 2.7-1.5-2.5 1 .2l.1.2c-.7-1.3 1 .4.5-.5zm-2.6-2c0-.2 0-.1 0 0zm9.4-1l-.3-.5a3.7 3.7 0 00.3.5zm-6.5-4c-.4-.7-.3-.5 0 0zm15.5-3.5l.4.8-.4-.8zm2.5-.5zm-6-9.7l-.2-.6.3.6zm.5-1.8l.3.3c-.2-.4-.3-.5-.3-.3zm5.6 11.8l-.1-.3v.3zM139.5 4l-1-1.6 1 1.6zm2.3-2.9a6.2 6.2 0 00.3.6 2.3 2.3 0 00-.3-.6zm-12.5 23.7l.1.2c.1.2 0 0 0-.2zM133 6l-.4-.6a3.8 3.8 0 00.4.6zm3.4-2l-.2-.2zm-.8 1l-.2-.4zm.5-3.1l-.3-.6z"/><path class="cls-1" d="M137.8 3.2a15.4 15.4 0 01-.9-1.8c-.7-.6.5 1.5-.6.1l.6.8c.6 1.3.5 1.7-.5.2l-.3-.6c.7 1.4-1-1-.4.2l1.2 1.8.5 1.5-1.3-2.2.3.8c.5.9-.7-.6.6 1.5a22 22 0 01-1.5-2.5c.3.7-.3-.2.5 1l-1.3-1.8.6 1.5-.3-.5c1 1.7-.9-.8.8 2.1l-.2-.3c.9 1.5 0 .5-.2.3a23.4 23.4 0 001.6 2.6c-.6-.3-.5-.2.8 2.2-1.7-2.3-2.4-4-3.7-5.5a12.2 12.2 0 011.4 2.7 31.8 31.8 0 01-2.5-2.6l1 1.5.4 1-1.4-2.4 1.4 2.4c.7 1.5-2.5-3.2-1-.8L133 6c.8 1.2.3.9.5 1.4l-1.3-2 .4.3c-1.4-1.8 0 .5-.1.4.3.8 1.5 2.3 1.9 3-.1-.1.2.5-.2 0a34.6 34.6 0 01-2.2-3.2 10.7 10.7 0 011.6 2.7 14.6 14.6 0 01-.1 0l-.9-1c-1.4-1.5 2.4 3.7 1.8 3.2-.7-1 0 .4-1-.8l-3-4c-.7-.5 1.7 2.4 1.9 3l-1.8-2.5c.7 1.1 1 1.3 1.4 2.2-.5-.8-.6-.6-1-1.5h-.6l1.8 2.3c.1.3-.7-.7-1-1.1l-.2-.3c-1.6-2 .8 1.1-.7-.6a13.9 13.9 0 011.4 1.9 19 19 0 00-1.5-1.8c.7 1 .2.5 1.3 2a16.9 16.9 0 01-1.4-1.8c1.3 1.8 0 .4.7 1.5l-.2-.3 1.8 3.2-1-1.4c-.6-.4 2 2.8 2 3-1.5-2-.2.2-1.7-1.8.7 1 1 1.6 2.3 3.2-1-1-2-2.6-2.4-3l.6 1-.8-1 1 1.5-2.4-2.9c.3.4-.8-.6 0 .5l-.4-.6c1.7 2.2.1.6 2 2.9l-1-1.2c0 .3 2 2.6 2.3 3.2 0 0 .2.4 0 .2a13.9 13.9 0 00-2.2-2.5s0 .3.8 1.5a16.4 16.4 0 01-1.6-2.3c-1.9-2.2.2.7-.2.5l-.8-1a42.4 42.4 0 003.2 4.4l-2.3-3c-.8-.6-.3.4-.5.4a13.6 13.6 0 01-1.5-1.8c.6 1-.5 0 1.2 2.4-.7-1-.5-.6-1-1l.9 1c.7 1 1.2 2 .4 1.3l-.5-.7c-.5-.2 2.6 3.7 1 2.3-.4-.4-1.5-1.9-1.5-1.7.6.8 2 2.5 1.5 2.2l-1.2-1.5 1.2 1.5a14.8 14.8 0 011.9 2.1c-1.3-1.3 1 1.4-.5 0 0-.2-1-1.4-1.4-2-1.8-1.5.8 1.8-1 .1.8 1.3.8 1.7 1.6 2.8-1.2-1.4-2.3-2.7-3.2-4-.2 0 2.5 3.3.6 1.2 1.6 2 .7 1.5 3 4.4a6.8 6.8 0 01-1.3-1.6c.7 1-2.2-2.3-2.3-2.2s1.6 1.7 1.5 1.9l-.5-.5.6.6-1.8-2.1c-.6-.5 1.2 1.8 1.2 2.1l-.4-.5h-.2l-.2-.2.7 1.1-.6-.7a8.4 8.4 0 01.6.8l-.8-1a7.7 7.7 0 011.6 2.5l-.4-.4 1.4 2c-1-1-1.7-2.3-1.3-1.4l-1.5-1.9c.5.8-.4-.1 0 .6a14.6 14.6 0 011.5 1.5c-1.9-2 .3.7.9 1.7l-.8-1.2s.8 1 1 1l-.9-1.1 1.1 1.2-.7-1c1.2 1.4.3 0 1.5 1.6-.4-.7.5.3-.6-1.3l1 1.3c-.7-1.5-.1-1.6.7-1.4l.5.7-1.3-1.7c1 1 2.5 2.4.7 0a6 6 0 01.5.7c0-.4 1.5 1 1.4.6-1.8-2.3 1.5 1.3-1-2l.4.7c-.8-.8-1.7-2.2-2.4-3l3 3.4-.6-.7 1.4 1.7c-3.5-4.5 2 1.7-.4-1.6l.4.6c1 .9-.8-1.3-1.2-2l1.6 2.1c.7.5-1-2 .3-.8l-2-2.4a12 12 0 011.6 1.9c1.9 2-.7-1.8 1.2 0a31.5 31.5 0 01-2-2.9c.6.9 2.3 2.8 2.3 3l.7 1c.4 0 .9 0-1.1-2.6 1.5 2 .3.4 1.2 1.3a1.6 1.6 0 00-.4-.4c-1.2-1.6.2 0 0-.3l.3.4-.8-1.4 1 1.1-1-1.3s1.3 1.7 1.1 1.3l-.8-1c.6.6-.5-.9.7.5l.1.3c1.8 2-.3-.9.6 0l-1.7-2.1c-.4-.8.4.4 1 1.1l1 .8-1.2-1.4.5.4.9 1.2c-2.4-3.2.6 0-1.6-2.9.6.6 1 1.4 1.3 1.7 1.3 1.3-1.2-2.3.2-.8s.5-.4 1.6.5l-.5-.6.6.3c-1-1.3-.4-.8-1.5-2.4l1.2 1.5c-.1-.2-.5-1 .1-.2l.4.6c.4.2.7 0 0-1.1a10.7 10.7 0 011.3 1.6l-.9-1.7.8 1-1-1.5 1.2 1.6c-1-1.9.2-.5.2-.6l-.5-.8c-.3-.6.5.4 1 1.2.8.7-1.4-2.6-.8-2.4 1.9 2.7-.3-1 1.8 2-.4-.8.5.3-.6-1.5a3.1 3.1 0 01.3.5c.8 1.1.4.1 0-.7l.6.9c-1.3-2-.7-1.6-2-3.6.4.4.6.9.8 1.2 1.3 1.9-.5-1 0-.6s.6 1 .8 1.4c1.7 2-.3-1.9 1-.6.2 0-1.3-2.1-1-2l1.5 2.5c-.8-1.3-.6-1.1-.4-1l.9 1.6c.5.9-.8-1.7.3 0l-.8-1.5c-.9-1.9 1.4 1.7.8.7a2.3 2.3 0 00-.3-.5s.3.2.9 1.3l-.8-1.6.7 1.2-.6-1.2-.5-.7c.6 1-.6-1.5.7.8l.6 1c-.4-1-.9-1.9-.6-1.6 1.3 2.4.4.4.6.7l.5.8c-.6-1.2-.1-.8-.4-1.2a3.3 3.3 0 01.8 1.3 10.8 10.8 0 00-.7-2l1 2c-1.3-3.1.8 1-.7-2.2l.9 1.7c-.7-1.6-.5-1.4-.3-1.1l.2.3c.2.2-.4-1.5-.4-1.7L148 15c0-.4-.9-2.3-.6-1.8a5.9 5.9 0 01.3.6c-.2-.5.2.1.4.7l-1-3.2c1 2.2.3 1 1.2 3.1.6 1.2.2-.1 0-1.3l.5 1.4-1.1-3.4-1.8-5.3a26.7 26.7 0 00-1.6-4.1c.3 1 .6 2.3-.1.4l.6 1.8c.1 1-1.4-3.7-1.7-3.5l.3.6s.4 1.3.1.7a9.9 9.9 0 01-.5-1l.7 2.4-1-2.4c-.1.2 1.4 3.3.9 2.7a10 10 0 01-.6-1.7c-.8-1.5-.3 0 0 1a18.3 18.3 0 00-1-2.4 15.5 15.5 0 01.9 2.4c-.6-1.6-.4-.8-.7-1.2l.7 1.6c0 .3-.3-.4-.3-.3l.8 1.5c.5 1.6-.6-.7-1-1.3a3.3 3.3 0 01-.2-.6c-.4-.6-1.1-1.8-.6-.3l-.1-.2c.4 1.6 1.2 2.5 1.6 4-.2-.2-2.3-5-1.7-3a20 20 0 011.5 3.8l-1.3-3s.3.9.1.6l.3.6c1.2 2.5-.3-.3.3 1.3-1.5-3.5-1.2-2.8-2.9-6.3.8 2 1.6 3.7 1.3 3.4L139.5.7c-.5-.4 1.1 3.6 2.1 5.9l-2.2-4.3v.5l-1-2.2a28.8 28.8 0 001.7 3.6l-.3-.6A13.8 13.8 0 01141 6l-1-1.9c.5 1.2-.5-.6-.1.2l.7 1.2c.8 1.6 0 .1.3 1a22.7 22.7 0 00-1.4-2.6l.1.2c0 .1.6 1.3 0 .4l-1.1-2.3.8 1.7a10.5 10.5 0 01-.8-1.5c-1-1.2 2.6 4.8 1.2 2.9-.5-.8-.8-1.4-.4-1a18.8 18.8 0 00-1.6-2.6l-.1-.2c-.2 0-.5 0 .2 1.6z"/><path class="cls-1" d="M137.6 1.6s.2-.1 0-.4-.8-1 0 .4zm-10 10.4v-.2zm0 1l.4.4-.4-.4zm4.9-6zm-3.8 2l1.3 1.8a16 16 0 00-1.3-1.7zm1.8 0l-.3-.3a2.4 2.4 0 00.2.3zm1.4-3a7.6 7.6 0 01.6 1c-.2-.3.3.3-.6-1zm-3.2 9.7l-.7-1 .5.7.2.3zm0-1c.2.1-.2-.6-.7-1a8.3 8.3 0 01.7 1zm2.7-.8l-.9-1 .7.8.2.2zm-65 9.2l.7 1.1-.6-1.5v.4zm2 .4a28.2 28.2 0 00-2.4-4.3l1.1 2.1c-1-1.7-1.1-1.5-.9-.9v-.1l1 1.5c-.8-.8.6 1.6-.7-.1v-.2l.5 1.2a12 12 0 01-.9-1.4c.5 1 .9 2 .7 2 1 1.5.7.9.4.2s-.5-1.3.5.2l.1.2c-.5-1.3 1 .6.6-.3z"/><path class="cls-1" d="M66.2 21.3c-.1-.2 0-.1 0 0zm9.4-1.5l-.4-.4a5.4 5.4 0 00.5.4zm-7-3c-.5-.5-.4-.4 0 0zm12.1-7.6l.8.3-.8-.3zm1.6-1.7zM71.8 3.2l-.6-.4.6.4zM71 1.7a.9.9 0 00.4 0c-.4 0-.5-.1-.4 0zm11.7 6l-.3-.2zM70 3.6L68.2 3zm-.3-3l.6.4a3.6 3.6 0 00-.6-.3zm-1.2 22.6v.3c0 .2.2 0 0-.3zM66.5 7l-.7-.3.7.3zm1.4-2l-.3-.2zm0 .7l-.4-.1zm-1.6-2.2l-.5-.3z"/><path class="cls-1" d="M68.4 3.7L66.6 3c-.9-.3 1.3.8-.3.2l.9.3c1.2.7 1.4 1-.3.3l-.6-.3c1.4.8-1.2-.4 0 .2l1.8 1 1.4.8L67 4.3l.7.5c1 .4-.8-.3 1.4.8a29 29 0 01-2.6-1.3c.6.4-.4-.1 1 .6l-2-.9 1.4.9-.6-.3c1.7 1-1-.3 1.9 1.2l-.4-.1c1.6.8.4.4 0 .2l2.8 1.5c-.6 0-.4 0 1.9 1.3-2.6-1.1-4-2.2-5.9-3a16.4 16.4 0 012.6 1.7A35.1 35.1 0 0165.7 6l1.7.8.8.6-2.4-1.3 2.4 1.4c1.4.9-3.6-1.8-1.2-.4l-.5-.3c1.2.7.7.6 1.1 1l-2-1.2.4.2c-2-1 .3.3.2.3l3 1.7c-.1 0 .5.3-.2 0L65.7 7a15 15 0 012.7 1.7 28.5 28.5 0 01-.1 0l-1.2-.6c-1.8-.8 3.8 2.2 3 2-1-.6.2.3-1.1-.4-.3-.2-3.1-1.6-4.3-2.4-.9-.3 2.4 1.5 2.8 1.8L65 7.7c1 .8 1.4.8 2.1 1.4-.7-.5-.7-.3-1.5-.9-.3 0 0 .1-.4 0l2.5 1.4a7.7 7.7 0 01-1.4-.6l-.2-.2c-2.2-1.2 1.1.8-.9-.3.8.4 2 1 2 1.2-1.5-1-1.4-.8-2-1.1 1 .5.4.3 2 1.3l-2-1.2c2 1.2.2.3 1.3 1l-.4-.2 3 2.2-1.4-1c-.6-.2 3 2 2.8 2-2-1.2 0 .3-2-1.1l3.2 2.3-3.3-2.2 1 .8-1-.7c.7.6.8.7 1.4 1l-3.2-2c.4.4-.9-.4.2.4l-.6-.4c2.3 1.6.4.5 2.8 2.1l-1.4-.8 3.2 2.4s.3.3 0 .2a21.2 21.2 0 00-2.7-1.9s0 .3 1.2 1.2a27.3 27.3 0 01-2.2-1.8c-2.4-1.6.4.5 0 .4l-1-.8 4.2 3.5-3-2.3c-.9-.5 0 .3-.3.3a23.3 23.3 0 01-1.8-1.5c.9.9-.4 0 1.8 1.9a5.2 5.2 0 00-1-.8l1 .8c.9.9 1.6 1.7.7 1.1l-.6-.6c-.5-.1 3.2 3.3 1.4 2l-1.7-1.5c.8.7 2.4 2.2 1.9 2l-1.4-1.4 1.3 1.4a17.7 17.7 0 012.1 1.8c-1.4-1.1 1.2 1.3-.4 0a52 52 0 00-1.7-1.7c-1.8-1.4 1 1.6-.8 0 1 1.3 1 1.6 1.8 2.7l-3.4-3.8c-.2 0 2.7 3.1.7 1.1 1.7 2 .9 1.5 3.2 4.3a7.2 7.2 0 01-1.3-1.6c.3.5-.3 0-.9-.7l-1-1a5.6 5.6 0 00-.4-.5l1.5 1.9-.5-.5.6.7-1.8-2.2c-.5-.5 1.2 1.8 1.2 2l-.4-.5H67l-.1-.1.7 1-.6-.7.5.8-.7-.9a7.7 7.7 0 011.5 2.4l-.4-.4 1.2 2c-.8-1-1.5-2.3-1.2-1.4l-1.3-2c.4.8-.3-.2 0 .5a15.3 15.3 0 011.3 1.7c-1.7-2.2.2.7.7 1.7l-.7-1.3.9 1.1L68 22l1 1.3-.6-1.1c1.1 1.5.3 0 1.4 1.8-.3-.8.5.3-.5-1.3.7.9.7 1.2.9 1.3-.5-1.6 0-1.6.9-1.5l.5.7-1.3-1.8c1 1.2 2.6 2.4.8.2a7 7 0 01.5.6c-.1-.4 1.5.9 1.5.5-2-2.3 1.6 1-1.2-2l.5.7-2.6-2.9c2 1.9 1.4 1.5 3.3 3.2l-.8-.6 1.6 1.5c-1.9-2.1-1.4-1.7-.6-1.3s1.5 1.2 0-.3l.6.5c1 .8-1-1.2-1.5-1.8l2 2c.8.3-1.3-2 .2-1l-2.3-2A11.2 11.2 0 0174 20c2.3 1.6-1-1.7 1.2-.3-1.2-1.2-1.8-1.5-2.5-2.4.8.7 2.9 2.2 2.9 2.4l1 .7c.3 0 .8 0-1.8-2.2 2 1.5.4.3 1.6 1a1.6 1.6 0 00-.5-.3c-1.6-1.3.1 0 0-.3l.3.3-1.2-1 1.3.8-1.4-1c0-.1 1.8 1.2 1.6.8l-1.1-.7c.7.4-.7-.7.8.4l.2.1c2.2 1.4-.5-.7.6-.1l-2.3-1.5c-.7-.6.5.2 1.3.7l1 .5-1.4-1 .6.3 1.2.9c-3.2-2.4.7-.2-2.3-2.3l1.7 1.2c1.7.7-2-1.8-.1-1 1.8.8.4-.4 1.7 0l-.7-.4h.7c-1.4-.8-.7-.6-2.3-1.6l1.6 1c-.1-.2-.8-.7.1-.2l.6.3c.5 0 .6-.2-.5-1a13 13 0 011.8.9c.1 0-.5-.5-1.5-1.1.3 0 .6.2 1.2.5l-1.6-1c.3 0 1.3.7 1.8.9-1.9-1.2 0-.5-.1-.7l-.8-.4 1.3.6c1 .3-2.3-1.6-1.7-1.7 2.9 1.5-.8-.7 2.5 1-.8-.6.6 0-1.3-1a3 3 0 01.5.2c1.3.6.4 0-.3-.6l1 .5c-2.1-1.1-1.4-1-3.5-2.1l1.2.6c2 1-.9-.6-.4-.4l1.5.7c2.5 1-1.3-1.4.5-1 .1 0-2.3-1-2-1l2.6 1.2c-1.3-.7-1-.6-.9-.6l1.7.9c1 .4-1.6-1 .2-.2l-1.4-.8c-1.8-1 2 .7 1 .1a2 2 0 00-.5-.2s.4 0 1.4.6l-1.5-.9 1.2.6-1.2-.6-.7-.4c1 .5-1.4-.8 1 .3l1 .5c-.9-.5-1.8-1-1.4-.9 2.4 1.2.6.1.9.2l.8.4c-1.1-.7-.5-.6-1-.7a3.6 3.6 0 011.4.5A11.1 11.1 0 0081 8l2 1c-3-1.6 1.3.4-2-1.3l1.9.9c-1.5-1-1.2-.9-1-.8l.4.2c.3 0-1.3-1-1.4-1.2l2.4 1.3c-.3-.2-2.2-1.2-1.6-1a6.3 6.3 0 01.6.4c-.5-.3.2 0 .8.2L80.2 6c2.2 1.1 1 .6 3 1.7 1.1.5 0-.2-1-1l1.3.8-3-2-4.8-2.9A32.2 32.2 0 0071.9.4c.9.6 2 1.3.2.3l1.6 1c.7.7-3.4-1.9-3.5-1.6l.6.2.6.5a12.2 12.2 0 01-1-.6l2 1.4L70.3.3c0 .2 3.1 1.7 2.3 1.5a14.4 14.4 0 01-1.5-1c-1.5-.6-.2.2.7.8A23.2 23.2 0 0069.3.3a21.7 21.7 0 012.3 1.3c-1.5-.9-.9-.4-1.3-.6l1.5.9c.2.2-.4-.2-.3 0l1.5.7c1.4.8-.8-.3-1.5-.6l-.6-.3c-.6-.2-1.9-.8-.6 0l-.2-.1c1.4 1 2.5 1.3 3.8 2.2-.3 0-4.9-2.6-3.2-1.5a25.8 25.8 0 013.6 2.1l-2.9-1.6s.7.5.4.4l.7.3c2.5 1.3-.4 0 1 .8l-6-3.3c1.8 1 3.5 2 3 2L68 1.4c-.7-.1 3.1 2 5.2 3.3L69 2.6l.4.3L67 2c2.2 1 .7.4 3.5 1.8l-.6-.4a18.3 18.3 0 012.4 1.4l-1.9-1c1.2.6-.7-.3.1.2l1.2.5c1.7.9 0 .1.9.6A27.8 27.8 0 0070 3.7l.2.1c0 .1 1.2.7.3.3l-2.3-1.2 1.7.9a14 14 0 01-1.5-.7c-1.5-.6 4.8 2.4 2.6 1.6-.8-.5-1.4-.8-.8-.6a28.7 28.7 0 00-2.8-1.3h-.2c-.1 0-.3.1 1.2 1z"/><path class="cls-1" d="M67.2 2.7l-.2-.3c-.5-.2-1.2-.4.2.3zm-2 9H65zm.4.9zm1-4.8zm-1.8 1.9zm1.3-.2l-.3-.2zm-.4-2.4a11.4 11.4 0 011 .7c-.4-.2.4.1-1-.7zm1.6 7.7l-1-.9.7.7.3.2zM67 14l-.9-.8.9.8zm2-.7l-1.1-.8.8.7.3.1zM43.7 55.6l.7 1-.8-1.4v.4zm1.6.5a41 41 0 00-2.7-4.1l1.3 2c-1.2-1.6-1.2-1.4-.9-.9V53l1 1.5c-.7-.8.8 1.5-.6-.2v-.2l.6 1.1a15.8 15.8 0 01-1-1.3c.6 1 1.2 2 1 1.9 2.1 3-1.4-2.5.8.4l.1.2c-.6-1.2.9.6.4-.3zM43.1 54zm8-.2l-.4-.4.4.4zm-6.6-3.6c-.5-.5-.4-.4 0 0zm10.9-5.6l.8.3-.8-.3zm1.4-1.9zm-11-2.9l-.7-.2zm-1.2-1l.4.1c-.4-.1-.5-.1-.4 0zm12.4 4h-.3zM44.2 40l-1.8-.7zm-1-1.9l.6.2a6.3 6.3 0 00-.6-.2zm2.2 17.8zm-3.9-14l-.6-.4.6.4zm1-1.3l-.4-.1zm0 .6l-.3-.2zm-1.8-1.7l-.6-.3z"/><path class="cls-1" d="M42.7 40l-1.8-.8c-.9-.3 1.3.6-.3 0l1 .4c1.2.6 1.4.8-.3.1l-.6-.2c1.4.6-1.2-.4 0 .1.8.3 1.2.6 2 .8l1.4.8-2.4-1 .8.4c1 .4-.8-.2 1.4.7l-2.7-1.2a6 6 0 001 .5l-2-.8 1.4.7-.6-.3c1.7.9-1-.3 2 1.1l-.4-.1c1.6.7.4.3 0 .1l2.8 1.4c-.6 0-.4 0 2 1.2-2.7-1.1-4.2-2-6-2.8a25.5 25.5 0 012.6 1.4c-.9-.3-1.6-.5-3.4-1.4l1.7.9.9.5-2.4-1.3 2.4 1.4c1.4.8-3.6-1.9-1.2-.5l-.5-.2a3.4 3.4 0 011.2.8l-2.1-1.2.5.2c-2-1 .3.3.1.3.7.4 2.5 1.3 3 1.7 0 0 .5.3 0 0l-3.4-1.9a22.3 22.3 0 012.7 1.7l-1.7-1 1.6 1-1.2-.6c-1.8-1 3.8 2.3 3 2-1-.7.3.2-1-.5l-4.3-2.5c-.8-.4 2.4 1.4 2.8 1.8l-2.5-1.6c1 .8 1.4.9 2.1 1.4l-1.5-.9h-.4L43 44a11.9 11.9 0 01-1.3-.7l-.3-.2c-2-1.3 1.2.8-.7-.4l2 1.3-2-1.2 2 1.3c-1.2-.6-1.2-.7-2-1.2 1.8 1.2.1.3 1.2 1l-.3-.2 2.9 2.2-1.4-1 2.8 2c-2-1.3 0 .3-2-1.3L47 48l-3.2-2.2 1 .8-1-.8 1.4 1.1-3-2.1c.3.3-.9-.5.2.3l-.6-.5c2.2 1.7.4.5 2.7 2.2l-1.3-.8 3 2.5c.1 0 .4.3.1.2a32 32 0 00-2.6-2s0 .2 1.1 1.1l-2-1.8c-2.3-1.8.4.5 0 .3l-1-.8L46 49l-3-2.3c-.8-.6 0 .2-.2.1L41 45.3c1 .9-.3 0 1.9 1.9a5.8 5.8 0 00-1-.8l1 .9c.8.8 1.6 1.6.7 1l-.6-.6c-.4-.3 3.2 3.2 1.5 1.9L42.8 48c.7.8 2.4 2.3 1.8 2l-1.3-1.4 1.2 1.4a23.2 23.2 0 012 2c-1.3-1.3 1.2 1.2-.4-.2l-1.6-1.7c-1.8-1.5 1 1.5-.8 0l2 2.5-3.4-3.8c-.2 0 2.6 3.1.7 1.1 1.7 2 1 1.4 3.3 4.2a8.4 8.4 0 01-1.3-1.6c.3.5-.2 0-.9-.7l-.9-1a4.8 4.8 0 00-.5-.5l1.6 1.8-.5-.5.6.7-1.8-2.1c-.6-.6 1.2 1.7 1.3 2l-.4-.5h-.2l-.1-.2.7 1-.6-.7.6.8-.8-1a10.5 10.5 0 011.6 2.4l-.3-.4 1.3 2c-.9-1-1.6-2.3-1.2-1.5L43 52.2c.5.8-.3-.2.2.5a18.4 18.4 0 011.3 1.6c-1.7-2 .3.7.9 1.7l-.8-1.2.9 1-.8-1.1 1 1.3-.7-1.1c1.2 1.5.3.1 1.5 1.7-.4-.7.5.4-.7-1.2l1 1.3c-.6-1.5-.2-1.4.5-1.2l.6.7-1.4-1.8c1 1.2 2.6 2.4.7.2l.5.6c-.1-.3 1.4 1 1.4.7-2.1-2.3 1.5 1.1-1.4-1.9l.6.6c-.8-.7-2-2-2.6-2.8l3.2 3.2-.7-.6 1.5 1.5c-1.9-2-1.3-1.7-.7-1.2s1.5 1.2 0-.3l.6.6c1 .8-1-1.2-1.5-1.8l2 2c.7.4-1.3-2 0-.9l-2.2-2a14.8 14.8 0 011.8 1.5c2.2 1.7-1-1.6 1-.1l-2.5-2.5c.8.8 2.9 2.3 2.9 2.5l.9.8c.3 0 .8 0-1.7-2.2 2 1.6.4.3 1.5 1a2.1 2.1 0 00-.5-.3c-1.5-1.3.2 0 0-.3l.3.3-1.1-1 1.2 1-1.3-1c0-.2 1.7 1.2 1.4 1l-1-.8c.7.4-.7-.8.8.3l.2.2c2.1 1.5-.5-.7.5 0L50.1 51l1.2.9 1.1.5-1.4-1 .6.2 1.1 1c-3.1-2.5.7-.1-2.3-2.3l1.7 1.2c1.6.9-2-1.8-.1-.8 1.7.9.3-.4 1.6 0l-.7-.3.6.1c-1.4-1-.6-.6-2.2-1.7l1.6 1c-.2-.2-.8-.7 0-.2l.6.4c.5 0 .7-.2-.5-1a15.8 15.8 0 011.8 1c.1 0-.5-.5-1.5-1.1l1.2.5-1.6-.9 1.8 1c-1.8-1.3 0-.5-.1-.7l-.8-.4 1.3.6c1 .3-2.3-1.6-1.8-1.6 3 1.4-.7-.7 2.5 1-.7-.6.6 0-1.3-1a4.9 4.9 0 01.6.2c1.2.5.4 0-.4-.6l1 .5c-2.2-1-1.5-1-3.6-2l1.3.6c2 .9-1-.5-.5-.4s1.2.5 1.6.7c2.4.8-1.4-1.3.4-1 0 0-2.4-.9-2.2-1l2.8 1.2-1-.5 1.8.7c1 .4-1.7-.9.2-.2L55 45c-1.9-1 2 .5 1 0a2.6 2.6 0 00-.5-.2 4.5 4.5 0 011.4.5l-1.6-.7 1.3.5-1.2-.6-.8-.2c1 .3-1.5-.8 1 .2l1.2.3c-1-.4-2-.8-1.6-.8 2.6 1 .6 0 1 .1l.8.4c-1.2-.6-.6-.5-1-.7a3.9 3.9 0 011.4.4 9.8 9.8 0 00-1.9-.9l2.2.7c-3.2-1.2 1.2.2-2.2-1l2 .6c-1.7-.7-1.4-.6-1-.6l.3.1c.3 0-1.4-.7-1.5-.8l2.6.8-1.8-.7a5 5 0 01.7.2c-.5-.2.2 0 .8.1l-3.1-1.3c2.3.7 1 .5 3.1 1.1 1.3.3 0-.2-1-.7l1.4.4s-6.2-2.3-8.7-3c-1.7-.6-2.7-1-4.2-1.3 1 .4 2.2.9.3.3l1.8.6c.8.4-3.7-1.3-3.7-1.1l.6.2c.1 0 1.3.4.7.3s-.8-.3-1.2-.4l2.4.9a77 77 0 01-2.4-.8s3.3 1 2.6 1-1.1-.4-1.7-.6c-1.6-.5-.2 0 .8.4l-2.5-.8 2.4.8c-1.6-.5-.9-.2-1.3-.3l1.6.5h-.3l1.6.5c1.5.6-.9-.2-1.6-.3l-.6-.3c-.6-.1-2-.5-.6 0h-.2l4.2 1.5c-.4 0-5.3-1.8-3.4-1a32.4 32.4 0 013.8 1.5l-3-1.2.5.3.7.2c2.6 1-.4 0 1.2.6l-6.5-2.4a19.4 19.4 0 013.3 1.4L42 38.6c-.7-.1 3.3 1.5 5.6 2.5-2-.8-2.8-1-4.5-1.8l.4.3-2.2-.9c2.2 1 .6.4 3.6 1.5l-.6-.3a25.2 25.2 0 012.5 1c-.7-.1-1-.4-2-.7 1.2.5-.7-.2.1.1l1.3.5c1.7.7 0 0 1 .5l-2.8-1.1h.2c.1.1 1.3.6.3.3l-2.4-1 1.8.7c-.4 0-1.2-.4-1.6-.6-1.5-.4 5 2 2.8 1.3l-1-.4-2.7-1.1-.3-.1 1.3.6z"/><path class="cls-1" d="M41.4 39.2l-.3-.3c-.5-.1-1.2-.3.3.3zm-.4 6.1l-.2-.2zm.4.7l.4.4-.4-.4zm.4-3.5zm-1.4 1l1.7 1.3-1.7-1.3zm1.1.2l-.3-.3zm-.7-1.9l1 .7c-.4-.2.4.1-1-.7zm2.3 6.4l-.9-.9.7.7.2.2zm-.4-.8l-.8-.8.8.8zm1.8-.3l-1-.8.7.7.3.1zm-15.9 95.7l.7 1-.7-1.4v.4zm2.3.2a26 26 0 00-2.7-4.2l1.3 2c-1.2-1.6-1.2-1.4-1-.8v-.2c.2.3 1 1.3 1 1.5-.7-.7.7 1.6-.7 0v-.2l.5 1.2a10.4 10.4 0 01-.9-1.4c.4 1 .9 2 .6 2 1 1.5.7.8.5.2s-.5-1.4.6.1v.2c-.4-1.3 1.1.5.8-.4zm-2.5-2.1c0-.2 0-.1 0 0zm9.5-2.4l-.5-.3c.2 0 .4.2.5.3zm-7.2-2.5c-.6-.4-.4-.3 0 0zm11.7-9.6l.8.1-.8-.1zm1.3-3.6zm-11.4-.1l-.7-.2.7.2zm-1.4-.8a1 1 0 00.4 0h-.4zm13.1 1h-.3a2.3 2.3 0 00.3 0zm-13.2.4l-1.9-.4zm-1.4-1.7h.7a6.8 6.8 0 00-.7 0zm1.6 21v.4c0 .2.2 0 0-.3zm-3-16.3l-.7-.3.6.3zm1-2h-.3zm0 .8l-.3-.2zm-1.8-1.7l-.6-.3z"/><path class="cls-1" d="M29.2 123.5l-1.9-.5c-.9-.2 1.4.5-.2.1l.9.3c1.3.4 1.6.6-.2.1l-.6-.2c1.4.6-1.3-.2 0 .2l2 .6 1.4.7-2.5-.8.8.4c1 .3-.8-.2 1.5.6l-2.8-1c.7.3-.3 0 1 .5l-2-.7 1.4.6-.5-.2c1.8.7-1.2-.2 2 1l-.4-.1c1.7.6.4.3 0 .2l3 1.1c-.7 0-.5 0 2 1.2-2.8-1-4.3-1.8-6.2-2.4a17.3 17.3 0 012.7 1.3 32.2 32.2 0 01-3.5-1l1.7.7.9.5-2.5-1 2.5 1.1c1.4.8-3.8-1.5-1.2-.3l-.6-.2c1.3.6.8.5 1.3.8l-2.2-1 .5.2c-2.2-1 .3.2.1.2l3.2 1.5c-.1 0 .5.3-.1 0l-3.5-1.5A15.8 15.8 0 0130 128l-1.3-.5c-1.9-.7 4 2 3.2 1.9-1.2-.6.2.2-1.2-.4l-4.5-2.1c-.8-.3 2.6 1.3 3 1.6l-2.6-1.3 2.2 1.2-1.6-.8h-.4l2.5 1.3a8.6 8.6 0 01-1.3-.6l-.3-.2c-2.2-1 1.2.7-.8-.2l2 1-2-1c1 .6.4.4 2 1.3l-2-1.1c2 1 .2.3 1.3 1l-.4-.2 3 2-1.4-.9c-.7-.2 3 1.7 3 1.8-2-1.1 0 .3-2.3-1l3.4 2.2-3.4-2 1 .7-1-.6 1.4 1-3.2-1.8c.3.3-1-.4.2.3l-.7-.4c2.4 1.5.4.5 3 2l-1.5-.7 3.4 2.1c0 .1.3.3 0 .2a19.6 19.6 0 00-2.8-1.6c-.1 0 0 .3 1.2 1a24.5 24.5 0 01-2.3-1.6c-2.4-1.4.5.5 0 .4l-1-.7c.6.6 2.5 1.8 4.4 3.2l-3-2.1c-1-.4-.1.3-.4.3a22.6 22.6 0 01-1.9-1.3c1 .8-.4 0 2 1.8a4.3 4.3 0 00-1.1-.7l1 .7c.9.8 1.7 1.6.8 1l-.7-.5c-.5-.1 3.4 3 1.6 1.9l-1.9-1.4c.8.7 2.6 2 2 1.8l-1.5-1.2 1.6 1.2a16.4 16.4 0 012.2 1.6c-1.5-1 1.3 1.2-.4 0l-1.8-1.5c-2-1.2 1.1 1.5-.9.1l2.1 2.5-3.7-3.4c-.3-.1 2.9 2.8.8 1 1.9 1.8 1 1.3 3.6 3.9a6.8 6.8 0 01-1.5-1.5c.3.5-.3 0-1-.6l-1-1a3.6 3.6 0 00-.5-.3s1.7 1.6 1.6 1.7l-.5-.5.6.7-2-2c-.5-.5 1.4 1.6 1.5 2l-.5-.5h-.2l-.1-.2.8 1-.7-.6a8.9 8.9 0 01.6.7l-.7-.8a7 7 0 011.6 2.3l-.4-.4 1.3 2c-.9-.9-1.6-2.3-1.2-1.4l-1.5-2c.5 1-.4 0 0 .6a15.3 15.3 0 011.4 1.6c-1.8-2 .3.7.8 1.7 0-.1.1-.1-.7-1.3.1 0 .8 1 1 1l-.8-1 1 1.2-.7-1.2c1.2 1.5.3.1 1.5 1.7-.4-.7.6.3-.6-1.2.9.8.8 1.1 1 1.2-.5-1.6 0-1.7.9-1.6l.5.6-1.4-1.6c1.1 1 2.8 2 .8 0a7.1 7.1 0 01.6.5c-.2-.3 1.5.8 1.5.4-2.3-2 1.7 1-1.4-1.8l.6.6c-1-.7-2.1-2-2.9-2.6l3.6 2.8-.8-.5 1.7 1.4c-4.2-3.9 2.4 1.1-.7-1.6l.6.5c1 .7-1.1-1.1-1.7-1.7l2.1 1.7c.8.4-1.4-1.7.2-.9-1.2-1-1.7-1.1-2.5-1.8a11.7 11.7 0 012 1.3c2.4 1.5-1.1-1.6 1.1-.4a35 35 0 01-2.7-2.2c.9.7 3 2 3.1 2.2l1 .7c.3-.1.9-.2-1.8-2 2 1.3.4.2 1.5.8a1.6 1.6 0 00-.4-.3c-1.7-1.1.1 0-.1-.3l.3.3-1.2-1 1.4.8-1.5-1 1.6.9-1.1-.7c.7.4-.8-.7.8.3.4.2.2.1.2.2 2.3 1.2-.5-.7.6-.2l-2.4-1.4c-.7-.6.5.2 1.3.7l1.2.4-1.6-1 .7.3 1.2.8c-3.3-2.2.7-.2-2.5-2.1.8.3 1.4.8 1.9 1 1.6.6-2-1.7-.2-1 1.9.7.3-.5 1.7-.1l-.7-.4h.6c-1.4-.8-.7-.6-2.4-1.5l1.8.8c-.2-.2-.9-.6 0-.2l.6.3c.5 0 .7-.3-.5-1a11 11 0 011.9.8c.1-.1-.5-.5-1.6-1.1l1.2.4-1.6-.6c.3 0 1.4.6 1.8.7-1.9-1 0-.5-.1-.7l-.8-.3c-.7-.3.5 0 1.3.5 1.2.1-2.4-1.5-1.8-1.6 3 1.1-.8-.7 2.6.6-.8-.5.6-.1-1.3-1a3 3 0 01.5.2c1.3.5.4-.1-.4-.6l1 .4c-2.2-.9-1.5-1-3.7-1.8a13.9 13.9 0 011.3.6c2.2.6-1-.5-.4-.5s1.2.4 1.6.6c2.6.5-1.4-1.4.4-1.3.1-.1-2.4-.7-2.2-.8 1.2.3 2.3.8 2.8.8-1.4-.5-1-.4-.9-.5a15.6 15.6 0 011.8.6c1 .2-1.8-.8.2-.4l-1.5-.4c-2-.8 2 0 1-.2a1.6 1.6 0 00-.6-.2l1.5.3-1.6-.6 1.3.4-1.3-.5-.8-.1c1.1.2-1.5-.6 1 0l1.2.1c-1-.3-2-.6-1.6-.6 2.7.6.6-.2 1-.2l.8.2c-1.2-.4-.6-.6-1-.6h1.5a6.4 6.4 0 00-2-.6l2.3.2c-3.4-.6 1.2-.1-2.3-.7l2 .1c-1.8-.4-1.4-.5-1.1-.6h.3c.3-.1-1.4-.5-1.6-.7l2.7.2c-.3-.2-2.4-.4-1.9-.4a2.4 2.4 0 01.8 0c-.6 0 .1-.2.8-.2a32.7 32.7 0 00-3.3-.7c2.4 0 1 .3 3.3.2 1.3-.2 0-.6-1.2-.8h1.5l-3.6-.3h-5.6c-1.8 0-3 0-4.4.2h2.3c.8.2-4 0-4 .2h1.4-1.2l2.6.2-2.6-.1s3.5.1 2.7.2-1.1 0-1.8-.1c-1.6-.1 0 0 1 .2l-2.7-.2 2.6.2c-1.7-.2-1 0-1.4 0l1.7.1h-.3l1.7.1c1.6.3-.9 0-1.6 0h-.7c-.7 0-2-.2-.6 0H30c1.7.4 2.9.4 4.4.8-.4 0-5.5-.9-3.5-.5a24.7 24.7 0 014 .9l-3.2-.6.5.1.8.2c2.7.5-.5 0 1.2.4-3.7-.8-3-.7-6.8-1.3 2 .4 4 .8 3.5.8l-2.8-.6c-.7 0 3.5 1 6 1.6l-4.8-1 .4.1-2.3-.5 3.8 1a2.8 2.8 0 01-.6-.2 19.5 19.5 0 012.7.7l-2.1-.5c1.2.3-.8-.1.1.1l1.3.3c1.8.5 0 0 1 .4l-2.9-.8.2.1c.1 0 1.4.4.3.2l-2.4-.7 1.8.5-1.7-.4c-1.5-.2 5.3 1.4 3 1l-1-.3-3-.7h-.2s-.1.1 1.5.6z"/><path class="cls-1" d="M27.8 122.9l-.3-.2c-.5-.1-1.2-.2.3.2zm-.9 8.4l-.2-.2zm.4.8l.5.3-.5-.3zm1-5zm-1.9 2zm1.3-.3l-.3-.2a2.8 2.8 0 00.3.2zm-.6-2.3a11.4 11.4 0 011.1.6c-.4-.2.4.1-1-.6zm2.1 7.7l-1-.8.7.6.3.2zm-.4-.9c.3.2-.3-.4-1-.7l1 .7zm2-.9l-1.2-.7 1 .6.2.1zm101-82.8l-1-.8 1.3 1.1-.2-.3zm-1.8 0a42.1 42.1 0 003.6 3.5l-1.7-1.7c1.6 1.3 1.6 1.1 1.2.6v.2l-1.4-1.2c1 .5-1.2-1.3.6 0h.2l-1-.9a15.2 15.2 0 011.3 1c-.7-.7-1.5-1.5-1.3-1.6-3-2.1 2 2.1-1 0l-.1-.2c1 1-1-.4-.4.4zm2.8 1.5l.1.1c.1 0 .1 0 0 0zm-8.9 2.2l.4.4a3.8 3.8 0 00-.4-.4zm7 3.2c.5.5.4.4 0 0zm-15.1 6.8l-.7-.5.7.5zm-2.7 1.9zm9.2 6.7l.5.5a7.4 7.4 0 00-.5-.5zm.3 1.8a1 1 0 00-.3-.2l.3.2zM113 65l.2.2zm11.4 6.7l1.5 1.3-1.5-1.3zm-.7 3.2l-.6-.4a3 3 0 00.6.4zm6.4-25l-.1-.2.1.2zm-.4 18.7l.6.6a5 5 0 00-.6-.6zM127 71l.3.2zm.5-.9l.3.3zm.5 2.9l.4.4z"/><path class="cls-1" d="M126 72a18.4 18.4 0 011.4 1.4c.8.5-.9-1.2.5-.2l-.8-.6c-.9-1-1-1.4.5-.2l.4.4c-1-1 1.2.7.2-.2l-1.5-1.4-1-1.3 1.9 1.8-.6-.7c-.7-.7.8.4-1-1.3a24.6 24.6 0 012.2 2l-.7-.8 1.7 1.5-1-1.3.4.4c-1.4-1.4 1 .6-1.3-1.8l.2.3c-1.2-1.3-.2-.6.2-.4a28.2 28.2 0 00-2.3-2.1c.7.1.5 0-1.3-2 2.2 1.9 3.2 3.3 4.8 4.5a12.8 12.8 0 01-2-2.3 28.8 28.8 0 013.1 2.1l-1.4-1.2-.6-.9 2 2-2-2c-1-1.3 3 2.7 1.2.6l.4.4c-1-1-.5-.8-.8-1.3l1.7 1.7-.4-.2c1.7 1.5-.2-.4 0-.4-.5-.7-2-2-2.5-2.5.1 0-.3-.5.2 0a36 36 0 012.8 2.6 11.5 11.5 0 01-2.1-2.3l1.4 1.3a17.6 17.6 0 00-1.3-1.3l1 .8c1.6 1.2-3.1-3.1-2.4-2.8 1 1 0-.4 1.1.6.2.3 2.6 2.3 3.6 3.4.8.4-2-2-2.3-2.5l2.1 2c-.8-1-1-1-1.7-1.8.6.6.7.5 1.3 1.2h.5l-2-2 1 1 .3.2c1.8 1.6-1-1 .8.4a15.5 15.5 0 01-1.7-1.6 20.2 20.2 0 001.8 1.5c-1-.8-.3-.5-1.7-1.8a17.1 17.1 0 011.7 1.6c-1.6-1.5 0-.4-1-1.3l.4.2c-1-1-1-1.3-2.4-2.8l1.2 1.2c.6.3-2.5-2.5-2.4-2.6 1.7 1.7 0-.3 2 1.5L127 60c1 .8 2.2 2.3 2.8 2.6l-.8-1 1 1-1.2-1.4 2.8 2.5c-.3-.4.8.5 0-.4l.5.5c-2-2-.3-.6-2.4-2.6l1.2 1c-.1-.3-2.3-2.3-2.8-2.8 0-.1-.2-.4 0-.3a15 15 0 002.5 2.2c.1 0 0-.3-1-1.4a14.9 14.9 0 012 2.1c2.2 1.9-.3-.6 0-.5l1 1a41.6 41.6 0 00-3.7-4l2.7 2.5c.8.5.2-.4.4-.4a14.5 14.5 0 011.7 1.6c-.8-1 .5 0-1.6-2.1.9.8.7.4 1.1.7l-1-.8c-.7-1-1.4-1.8-.5-1.2l.6.6c.5 0-3-3.4-1.3-2.2a22.9 22.9 0 001.8 1.5c-.8-.8-2.5-2.2-1.9-2l1.4 1.4-1.4-1.4a15.2 15.2 0 01-2.1-1.8c1.4 1.1-1.3-1.2.4 0l1.7 1.7c2 1.3-1-1.6 1-.2-1-1.2-1-1.5-2-2.5l3.7 3.4c.3 0-2.9-2.8-.7-1-2-1.8-1-1.5-3.7-4a7 7 0 011.5 1.4c-.7-.9 2.6 2 2.7 1.9s-1.8-1.5-1.8-1.7l.5.5-.6-.6 2 1.8c.7.4-1.4-1.6-1.4-1.9l.4.5h.4l-.9-1 .7.7-.6-.7.8.8a8.7 8.7 0 01-1.9-2.1l.4.3-1.7-1.7c1 .7 2 2 1.5 1.2l1.8 1.6c-.6-.8.4 0-.2-.6a14.2 14.2 0 01-1.6-1.3c2.1 1.7-.4-.6-1.2-1.4l1 1-1.1-.8 1 1-1.3-1 1 1c-1.5-1.3-.4-.1-1.9-1.5.6.6-.5-.2 1 1.1-1-.7-1-1-1.3-1 1 1.3.4 1.4-.4 1.3l-.6-.6L129 52c-1.2-1-2.9-2-.8 0l-.6-.5c.2.3-1.5-.8-1.4-.5 2.2 2.1-1.7-1 1.4 1.8l-.6-.6c.9.7 2 2 2.8 2.7l-3.5-3 .8.6-1.7-1.5c4.1 4-2.3-1.4.7 1.5l-.6-.5c-1-.8 1 1.2 1.6 1.8l-2-1.9c-.7-.4 1.3 1.8-.2.8 1.1 1.1 1.6 1.3 2.3 2.2a12.1 12.1 0 01-1.7-1.6c-2.2-1.7.9 1.7-1.2.2a28.5 28.5 0 012.3 2.6c-.7-.8-2.7-2.4-2.7-2.6l-.8-.8c-.4 0-.9 0 1.5 2.3-1.8-1.7-.4-.3-1.4-1.1a1.4 1.4 0 00.4.3c1.4 1.5-.2 0 0 .3l-.3-.3 1 1.2a13.5 13.5 0 01-1.2-1l1.2 1.1s-1.6-1.4-1.4-1l1 .9c-.6-.5.6.8-.7-.5l-.2-.2c-2-1.7.4.8-.6 0l2 2-1.1-1-1-.7 1.2 1.3-.5-.4-1-1c2.8 2.8-.7 0 2 2.6l-1.6-1.5c-1.4-1 1.6 2.2 0 1s-.5.4-1.7-.3l.6.5-.6-.2c1.2 1.1.5.7 1.8 2.1l-1.4-1.3c.1.3.6.9-.1.3l-.5-.5c-.4-.1-.7 0 .2 1.1a11.5 11.5 0 01-1.5-1.3c-.2 0 .3.6 1.1 1.5l-1-.9 1.3 1.3L119 58c1.5 1.6-.1.5-.1.7l.7.6c.4.5-.6-.3-1.2-1-1-.5 1.8 2.3 1.2 2.3-2.5-2.2.4.9-2.3-1.6.6.8-.5-.2 1 1.4l-.5-.4c-1-.9-.4 0 .1.7l-.8-.7c1.7 1.7 1 1.4 2.7 3a13.7 13.7 0 01-1-1c-1.7-1.4.7 1 .3.7l-1.3-1.2c-2-1.5.7 1.9-.9 1-.2 0 1.9 1.7 1.6 1.7l-2.1-2c1 1 .7.9.6.9a17.5 17.5 0 01-1.3-1.4c-.8-.6 1.2 1.5-.4.2l1.2 1.2c1.3 1.6-1.9-1.2-1-.4a2 2 0 00.4.5l-1.3-1a17 17 0 011.2 1.3l-1-1 1 1 .6.5c-.9-.7 1 1.3-.9-.5l-1-.8c.7.8 1.5 1.6 1.1 1.4-2-1.9-.6-.3-.9-.4l-.6-.6c.9 1 .2.7.6 1 0 0-.6-.3-1.2-.9a7.5 7.5 0 001.4 1.7l-1.8-1.5c2.4 2.4-1.1-.7 1.5 1.8l-1.5-1.2c1.2 1.3.9 1.1.6 1l-.3-.2c-.3-.1 1 1.2 1 1.5l-2-1.9c.1.3 1.7 1.8 1.2 1.5a3.2 3.2 0 01-.5-.5c.3.4-.3 0-.8-.4l2.2 2.6c-1.8-1.6-.7-.9-2.4-2.4-1-.7-.2.3.6 1.3l-1.2-1s4.6 4.8 6.5 6.5a28.5 28.5 0 003.2 3c-.7-.7-1.5-1.8 0-.4l-1.4-1.3c-.5-.8 2.8 2.7 3 2.4l-.5-.4s-1-1-.4-.6a8.7 8.7 0 01.8 1l-1.7-2 1.8 1.7c.1-.2-2.5-2.4-1.8-2a12.8 12.8 0 011.3 1.3c1.2 1 .2 0-.4-.9a20.7 20.7 0 001.8 1.8 17.8 17.8 0 01-1.8-1.9c1.2 1.3.7.6 1 .9l-1.2-1.2c-.2-.2.4.2.3.1l-1.2-1c-1.1-1.3.7.4 1.3.8l.5.5c.5.4 1.6 1.2.6.1l.2.2c-1-1.4-2.1-2-3-3.2.2.1 4 3.8 2.6 2.3a20.3 20.3 0 01-2.8-3.1l2.3 2.4s-.6-.7-.3-.5l-.6-.5c-2-2 .4.1-.8-1.1l5 4.8c-1.5-1.5-2.8-2.9-2.4-2.7l2 2.1c.6.3-2.4-2.9-4-4.7l3.5 3.4-.2-.5 1.7 1.7a38.8 38.8 0 00-2.8-2.8l.5.5a15.3 15.3 0 01-2-2c.7.5 1 .9 1.6 1.5-.9-1 .6.4 0-.2l-1-1c-1.3-1.2 0 0-.6-.8a23.7 23.7 0 002.1 2l-.1-.1c0-.1-1-1-.2-.4l1.8 1.9-1.3-1.4a14.1 14.1 0 011.3 1.2c1.3 1-4-3.7-2-2.4l.6.8a21.4 21.4 0 002.2 2l.2.2c.2 0 .4-.1-.8-1.4z"/><path class="cls-1" d="M126.8 73.4l.1.4c.1.3 1.1.7 0-.4zm6.9-11.3l.2.2zm0-1l-.5-.4.4.4zm-3.8 6.4zm3.2-2.4l-1.5-1.6a15.9 15.9 0 001.5 1.6zm-1.6.3l.2.2a2.3 2.3 0 00-.2-.2zm-.8 3.1a8 8 0 01-.8-1c.3.4-.4-.1.8 1zm1.4-10l1 1-.7-.7-.3-.2zm.2 1.1c-.3-.2.3.5.8 1a9.6 9.6 0 01-.8-1zm-2.6 1l1 1-.7-.7-.3-.2zm-32-17l-.7-1.1.7 1.4v-.4zm-2.6.2a20.6 20.6 0 002.9 4l-1.4-2c1.4 1.5 1.5 1.3 1.2.7l-.1.2c-.1-.3-1-1.2-1.1-1.4.9.5-.8-1.7.8-.2l.2.2-.6-1a7.5 7.5 0 011 1.2c-.5-1-1-2-.6-2-1.2-1.5-1-.8-.7 0s.6 1.2-.6 0l-.1-.3c.5 1.2-1.3-.4-.9.6zm2.9 1.7c0 .2 0 0 0 0zm-11.2 4.3l.4.4a3.6 3.6 0 00-.4-.4zm7.5 2.4c.6.5.4.3 0 0zm-17.9 9l-.6-.5.6.6zm-3.3 2zm8.5 7.6l.5.5a6.3 6.3 0 00-.5-.5zm-.1 2l-.3-.2.3.2zm-8.6-9.9l.2.3a2.3 2.3 0 00-.2-.3zm11.2 7.6l1.3 1.4-1.3-1.4zm-2 3.7a3.5 3.5 0 00-.4-.5 2.4 2.4 0 00.5.5zm12.9-30v-.4c-.3 0-.2.1 0 .4zm-4 22.2l.5.6a4.3 4.3 0 00-.5-.6zm-3.5 3l.2.2zm.7-1.2l.3.3-.3-.3zm-.1 3.3c0 .2.2.3.4.6z"/><path class="cls-1" d="M86 70.7a14.6 14.6 0 011.3 1.5c.8.5-.8-1.3.5-.2l-.7-.6c-.8-1.2-.8-1.6.6-.4l.4.5c-1-1.2 1.1.7.3-.3L87 69.7l-.8-1.4 1.8 1.9-.4-.8c-.8-.7.7.4-1-1.4a18.8 18.8 0 012 2.3c-.3-.7.4.2-.5-1l1.6 1.6-.9-1.4.4.4c-1.2-1.5 1 .6-1-2l.2.3c-1.2-1.4-.1-.6.2-.4a20.1 20.1 0 00-2.1-2.3c.7.1.5 0-1-2.1 2 1.9 3 3.5 4.5 4.7a10.2 10.2 0 01-1.8-2.5 23.8 23.8 0 013.1 2.2L90 66.3l-.5-1 1.8 2.2-1.7-2.2c-1-1.4 3 2.8 1.1.6l.4.4c-1-1-.4-.8-.6-1.4l1.6 1.8-.5-.2c1.7 1.6 0-.5.1-.5-.4-.7-1.9-2-2.3-2.6.1 0-.3-.5.2 0a27 27 0 012.7 2.7 9.3 9.3 0 01-2-2.5 14 14 0 011.3 1.4 12.8 12.8 0 00-1.2-1.4l1 .9c1.7 1.2-2.9-3.4-2.1-3 .8 1 0-.4 1.1.6l3.5 3.4c.8.5-2-2-2.1-2.6l2 2.2c-.8-1-1.1-1.2-1.6-2a14.7 14.7 0 011.2 1.2h.6l-2-2c-.2-.3.8.6 1.2 1l.1.2c1.9 1.7-.9-1 .8.4a12.2 12.2 0 01-1.6-1.7 15.1 15.1 0 001.8 1.6c-1-.8-.2-.6-1.6-2a11.9 11.9 0 011.6 1.8c-1.5-1.7.1-.6-.7-1.5l.3.3c-1-1-1-1.5-2.3-3l1.2 1.2c.6.3-2.4-2.6-2.3-2.7 1.7 1.7.1-.4 2 1.5l-2.7-3c1 .9 2.2 2.4 2.8 2.8l-.8-1 1 .8c-.7-.6-.7-.8-1.2-1.3l2.7 2.5c-.2-.4 1 .5 0-.5l.6.5c-2-2-.2-.6-2.3-2.7l1.2 1a37.5 37.5 0 00-2.7-2.9s-.2-.4 0-.2a10.8 10.8 0 002.5 2.1c.1 0 .1-.4-.9-1.4 1 1 2 1.8 2 2 2.2 1.9-.3-.6.2-.5l1 .9a28.5 28.5 0 00-3.9-4l2.7 2.5c.9.5.3-.4.6-.5a10.7 10.7 0 011.7 1.6c-.8-1 .6-.3-1.6-2.3.9.8.7.5 1.2.7l-1-.8c-.9-.9-1.5-1.8-.6-1.3l.6.6c.6 0-3.1-3.3-1.2-2.3l1.8 1.5c-.8-.8-2.5-2.2-1.9-2l1.5 1.3-1.4-1.3c-1.3-1-1-.5-2.3-1.7 1.5 1-1.2-1.3.5 0l1.8 1.6c2 1-1-1.7 1-.5-1-1.1-1-1.6-2-2.6l3.9 3.4c.3 0-3-2.8-.7-1.1-2-1.8-1-1.5-3.6-4 .5.5.1-.2 1.5 1.4-.7-1 2.6 1.8 2.7 1.7S95.3 49 95.4 49l.5.4-.6-.6c.7.5 1.3 1.2 2 1.9.7.4-1.3-1.7-1.3-2l.4.5.3-.1.2.1L96 48l.7.7a8 8 0 01-.6-.8l.8.8c-1.3-1.3-1.8-2.2-1.7-2.3l.4.4-1.4-2c1 .8 1.8 2.2 1.4 1.3l1.6 1.9c-.5-.8.4 0 0-.6a10.5 10.5 0 01-1.5-1.5c2 1.9-.3-.7-.8-1.7 0 .1-.2.1.7 1.2l-1-1 .8 1.1-1.1-1.2.7 1.2c-1.3-1.4-.4 0-1.7-1.6.5.7-.6-.2.6 1.3-.9-.7-.8-1.1-1-1.2.5 1.7-.1 2-1.1 2l-.6-.6 1.5 1.6c-1.2-1-3-1.9-1 .1a5.7 5.7 0 01-.5-.5c0 .4-1.7-.6-1.7-.2 2.2 2-1.8-.8 1.3 1.9l-.6-.6a32.1 32.1 0 012.9 2.6l-3.6-2.8.8.5-1.7-1.4c4.1 4-2.5-1 .6 1.7l-.6-.5c-1-.7 1 1.2 1.5 1.8l-2-1.8c-.8-.4 1.3 2-.3 1 1.1 1 1.6 1.2 2.4 2a9.4 9.4 0 01-1.9-1.5c-2.3-1.6 1 1.8-1.3.4a24.4 24.4 0 012.5 2.6 35.4 35.4 0 01-2.8-2.5l-.9-.8c-.3 0-.9 0 1.5 2.3-1.8-1.6-.4-.3-1.4-1a1.8 1.8 0 00.4.3c1.5 1.4-.2 0 0 .3l-.3-.3 1 1.1-1.2-1 1.3 1.2s-1.6-1.5-1.4-1l1 .8c-.6-.5.6.8-.8-.5l.1-.2c-1-.8-.9-.6-.7-.3s.6.8 0 .4l2 1.9c.5.7-.5-.3-1.2-1l-1-.6 1.3 1.3-.6-.3-1-1.2c2.7 3-.7.2 1.8 2.8-.6-.4-1.1-1.2-1.5-1.5-1.5-1 1.4 2.3-.2 1s-.6.6-1.8 0l.5.5-.6-.2c1 1.2.4.8 1.7 2.2l-1.4-1.3c.1.2.6 1-.2.3l-.4-.5c-.5-.1-.8.1 0 1.2 0 .2-.8-.7-1.5-1.4-.2 0 .3.7 1 1.6l-1-.8 1.2 1.3-1.4-1.3c1.3 1.7-.2.5-.2.7l.6.7c.4.5-.5-.3-1.1-1-1-.6 1.6 2.4.9 2.4-2.3-2.4.4 1-2.2-1.6.5.8-.6-.2.8 1.4a3 3 0 01-.4-.4c-1-1-.5 0 0 .8l-.8-.8c1.6 1.8.8 1.5 2.4 3.3a14 14 0 01-1-1c-1.5-1.7.7.8.2.6L79 58.9c-2-1.6.4 2-1.2 1.2-.2 0 1.7 1.8 1.4 1.8-.8-.8-1.5-1.9-2-2.2 1 1.2.7 1 .5 1a17 17 0 01-1.1-1.5c-.8-.7 1 1.7-.4.3l1 1.2c1.2 1.7-1.8-1.3-1-.4a1.4 1.4 0 00.3.5s-.4-.2-1.1-1l1 1.3-.9-1 .8 1 .6.6c-.8-.8.9 1.4-.8-.6l-1-.8c.7.8 1.4 1.7 1 1.5-1.8-2-.5-.3-.8-.4l-.7-.7c.8 1 .2.8.6 1.1-.1.1-.7-.3-1.2-1a7.1 7.1 0 001.1 1.8L73.5 61c2.1 2.7-1-.7 1.3 2-.5-.3-1-1-1.4-1.4 1 1.5.7 1.3.4 1.2l-.2-.3c-.3-.1.7 1.4.7 1.7l-1.8-2c.2.3 1.5 2 1 1.6a2.9 2.9 0 01-.4-.6c.2.5-.3 0-.8-.5 1.1 1.7.6 1.2 1.8 3-1.6-1.9-.5-1-2-2.7-1-1-.3.3.3 1.4l-1-1.3 2 3 3.3 4.6a20.8 20.8 0 002.7 3.4c-.6-.8-1.2-2 0-.4L78.3 72c-.3-.9 2.4 3.1 2.7 2.9l-.5-.5c0-.1-.7-1.1-.3-.7a8.2 8.2 0 01.7 1l-1.2-2.2a25 25 0 011.5 2c.2-.2-2.2-2.7-1.4-2.3a10 10 0 011 1.4c1.2 1.2.3 0-.2-1a14.3 14.3 0 001.7 2 13.3 13.3 0 01-1.6-2c1 1.4.6.7 1 1a16.5 16.5 0 01-1-1.4c-.1-.2.4.3.3.2l-1-1.2c-.9-1.3.7.5 1.3 1a3.4 3.4 0 01.4.6c.5.4 1.5 1.4.7.1l.1.2c-.8-1.5-1.9-2.1-2.6-3.6.3.2 3.5 4.3 2.5 2.6a15.7 15.7 0 01-2.4-3.4l2 2.6s-.4-.8-.2-.6l-.5-.5c-1.8-2.2.4.2-.6-1.2l4.3 5.4c-1.2-1.7-2.3-3.3-2-3.1l1.8 2.4c.6.3-1.9-3.3-3.3-5.3 1.3 1.7 2 2.2 3 3.7v-.5l1.5 1.9a27.6 27.6 0 00-2.4-3.2l.4.6c-.6-.7-1.9-2.2-1.7-2.2.6.5.8 1 1.4 1.6-.8-1 .6.5 0-.2l-1-1c-1.1-1.4.1-.2-.4-1a18.7 18.7 0 001.9 2.3l-.2-.2c0-.1-.8-1.1 0-.4l1.6 2-1.2-1.4a8.8 8.8 0 011.1 1.2c1.3 1-3.6-4-1.7-2.6.6.7 1 1.3.5.9a16.3 16.3 0 002.1 2.2l.2.2c.2-.1.5-.2-.5-1.6z"/><path class="cls-1" d="M86.5 72.3s-.1.1 0 .4c.4.4 1.1.8 0-.4zM97 58.2l.2.2zm0-1.2a5 5 0 00-.4-.3l.4.3zm-5.4 8zm4.1-3.1l-1.4-1.6a15.9 15.9 0 001.4 1.6zm-1.9.5l.3.3a2.5 2.5 0 00-.3-.3zm-1.5 3.8a6.7 6.7 0 01-.7-1.1c.3.4-.4-.1.7 1zm3.3-11.9l.9 1-.6-.7-.3-.3zm.1 1.2c-.3-.1.3.5.8.9a8.3 8.3 0 01-.8-.9zm-3 1.7l1 1-.8-.8-.2-.2z"/></svg>