<svg xmlns="http://www.w3.org/2000/svg" width="176" height="40" viewBox="0 0 176 40"><defs><clipPath id="a"><path fill="none" d="M-10.79 52.48h186.45v53.43H-10.79z"/></clipPath></defs><g clip-path="url(#a)"><path d="M54.06 33.92a1.28 1.28 0 000-2.56 1.28 1.28 0 000 2.56z" fill="#d1e9e3"/></g><g fill="#2f1559"><path d="M68.94 25.68l-3-6.75-3 6.75zM62.32 27l-1.56 3.5h-1.53l6-13.32h1.4l6 13.32h-1.56L69.52 27zm15.54-9.71h1.4l8.33 10.6v-10.6h1.46v13.22h-1.19l-8.55-10.84v10.84h-1.45V17.29zm17.63 0h1.49v13.23h-1.49zm8.31 0h1.52l5.56 9.45 5.56-9.45h1.51v13.22h-1.49V20.17l-5.56 9.32h-.08l-5.56-9.3v10.32h-1.46V17.29zm31.37 6.65v0a5.25 5.25 0 00-5.17-5.5 5.19 5.19 0 00-5.18 5.42v0a5.26 5.26 0 005.18 5.5 5.2 5.2 0 005.18-5.42m-11.94 0v0a6.75 6.75 0 1113.49 0s0 0 0 0a6.75 6.75 0 11-13.49 0m21.06-5.28h-4.44v-1.37h10.39v1.37h-4.44v11.85h-1.51V18.66zm21.3 5.28v0a5.25 5.25 0 00-5.21-5.46 5.19 5.19 0 00-5.18 5.42v0a5.26 5.26 0 005.22 5.46 5.19 5.19 0 005.17-5.42m-11.94 0v0a6.75 6.75 0 1113.49 0s0 0 0 0a6.75 6.75 0 11-13.49 0" stroke="#2f1559" stroke-miterlimit="10" stroke-width=".181"/><path d="M50.87 33.83L46.9 27l3.1-1a.55.55 0 00.35-.32.53.53 0 000-.46l-6.19-10.9a.5.5 0 00-.34-.26.52.52 0 00-.42.08L40.6 16 33.42 3.6A2.93 2.93 0 0031 1.9a2.93 2.93 0 00-2.46 1.7L9 37.29s-.29.43-.18.67.59.14.64.14h38.95a2.64 2.64 0 002.46-4.27zM12.91 36l30.61-20.64 5.57 9.82zm32.94-8.69l4.1 7.1a2 2 0 01.24 1.92 2 2 0 01-1.78.75H13.15zM31 3a1.94 1.94 0 011.5 1.13l2.65 4.59-22.74 24.87 17-29.46A1.94 1.94 0 0131 3zm4.76 6.72l4 7-26.95 18.01z"/></g></svg>